G04 #@! TF.FileFunction,Copper,L2,Bot,Signal*
%FSLAX46Y46*%
G04 Gerber Fmt 4.6, Leading zero omitted, Abs format (unit mm)*
G04 Created by KiCad (PCBNEW 4.0.6) date Wednesday, September 13, 2017 'PMt' 03:29:23 PM*
%MOMM*%
%LPD*%
G01*
G04 APERTURE LIST*
%ADD10C,0.100000*%
%ADD11R,3.500000X1.600000*%
%ADD12R,0.800000X0.750000*%
%ADD13R,1.700000X1.700000*%
%ADD14C,1.700000*%
%ADD15O,1.700000X1.700000*%
%ADD16R,0.500000X0.900000*%
%ADD17R,1.200000X0.400000*%
%ADD18R,5.200000X11.000000*%
%ADD19C,1.330000*%
%ADD20R,4.110000X4.360000*%
%ADD21C,0.497840*%
%ADD22C,0.600000*%
%ADD23C,0.500000*%
%ADD24C,0.350000*%
%ADD25C,0.200000*%
%ADD26C,0.254000*%
G04 APERTURE END LIST*
D10*
D11*
X197700000Y-80000000D03*
X192300000Y-80000000D03*
D12*
X188250000Y-96500000D03*
X186750000Y-96500000D03*
D13*
X181000000Y-116000000D03*
D14*
X183500000Y-116000000D03*
X186000000Y-116000000D03*
X188500000Y-116000000D03*
X191000000Y-116000000D03*
X193500000Y-116000000D03*
X181000000Y-113500000D03*
X183500000Y-113500000D03*
X193500000Y-113500000D03*
X181000000Y-88500000D03*
X183500000Y-88500000D03*
X186000000Y-88500000D03*
X196000000Y-88500000D03*
X198500000Y-88500000D03*
X181000000Y-86000000D03*
X183500000Y-86000000D03*
X186000000Y-86000000D03*
X188500000Y-86000000D03*
X191000000Y-86000000D03*
X193500000Y-86000000D03*
X196000000Y-86000000D03*
X198500000Y-86000000D03*
D13*
X199000000Y-121500000D03*
D15*
X196460000Y-121500000D03*
X193920000Y-121500000D03*
X191380000Y-121500000D03*
X188840000Y-121500000D03*
X186300000Y-121500000D03*
X183760000Y-121500000D03*
X181220000Y-121500000D03*
D16*
X186750000Y-94500000D03*
X188250000Y-94500000D03*
X188750000Y-118500000D03*
X190250000Y-118500000D03*
D17*
X193650000Y-98625000D03*
X193650000Y-99275000D03*
X193650000Y-99925000D03*
X193650000Y-100575000D03*
X193650000Y-101225000D03*
X193650000Y-101875000D03*
X193650000Y-102525000D03*
X193650000Y-103175000D03*
X193650000Y-103825000D03*
X193650000Y-104475000D03*
X193650000Y-105125000D03*
X193650000Y-105775000D03*
X193650000Y-106425000D03*
X193650000Y-107075000D03*
X193650000Y-107725000D03*
X193650000Y-108375000D03*
X186350000Y-108375000D03*
X186350000Y-107725000D03*
X186350000Y-107075000D03*
X186350000Y-106425000D03*
X186350000Y-105775000D03*
X186350000Y-105125000D03*
X186350000Y-104475000D03*
X186350000Y-103825000D03*
X186350000Y-103175000D03*
X186350000Y-102525000D03*
X186350000Y-101875000D03*
X186350000Y-101225000D03*
X186350000Y-100575000D03*
X186350000Y-99925000D03*
X186350000Y-99275000D03*
X186350000Y-98625000D03*
D18*
X190000000Y-103500000D03*
D19*
X191950000Y-98950000D03*
X191950000Y-100250000D03*
X191950000Y-101550000D03*
X191950000Y-102850000D03*
X191950000Y-104150000D03*
X191950000Y-105450000D03*
X191950000Y-106750000D03*
X191950000Y-108050000D03*
X190650000Y-98950000D03*
X190650000Y-100250000D03*
X190650000Y-101550000D03*
X190650000Y-102850000D03*
X190650000Y-104150000D03*
X190650000Y-105450000D03*
X190650000Y-106750000D03*
X190650000Y-108050000D03*
X189350000Y-98950000D03*
X189350000Y-100250000D03*
X189350000Y-101550000D03*
X189350000Y-102850000D03*
X189350000Y-104150000D03*
X189350000Y-105450000D03*
X189350000Y-106750000D03*
X189350000Y-108050000D03*
X188050000Y-98950000D03*
X188050000Y-100250000D03*
X188050000Y-101550000D03*
X188050000Y-102850000D03*
X188050000Y-104150000D03*
X188050000Y-105450000D03*
X188050000Y-106750000D03*
X188050000Y-108050000D03*
D20*
X190000000Y-103500000D03*
D21*
X178000000Y-78000000D03*
X201500000Y-78000000D03*
X178000000Y-124000000D03*
D22*
X189000000Y-88500000D03*
X194000000Y-118500000D03*
X182500000Y-111000000D03*
X182500000Y-97500000D03*
X185500000Y-94000000D03*
X185500000Y-96500000D03*
X180600010Y-106738040D03*
X194804713Y-116346743D03*
X195399990Y-108500000D03*
X196000000Y-107675010D03*
X196000000Y-114500000D03*
X196899990Y-107065694D03*
X188500000Y-112500000D03*
X197000000Y-112500000D03*
X197499979Y-106500000D03*
X197499979Y-111500000D03*
X191000000Y-111500000D03*
X200148057Y-116030916D03*
X200100010Y-105117683D03*
X181300207Y-107124990D03*
X183500000Y-108500000D03*
X197899990Y-113500000D03*
X197899990Y-105746232D03*
X181000000Y-105725010D03*
X183500000Y-106500000D03*
X185000000Y-103775010D03*
X196000000Y-104000000D03*
X180600010Y-103738040D03*
X181899990Y-103125010D03*
X184434306Y-104524990D03*
X197899990Y-102500000D03*
X191500000Y-96500000D03*
X198500000Y-96500000D03*
X200100010Y-102000000D03*
X192500000Y-95500000D03*
X199500000Y-95500000D03*
X196500000Y-101175010D03*
X193500000Y-94000000D03*
X196500000Y-94000000D03*
X197500000Y-104500000D03*
X200500000Y-103000000D03*
X184005783Y-101169227D03*
X192500000Y-88500000D03*
X184500000Y-90500000D03*
X183100010Y-102000000D03*
X188079911Y-91100010D03*
X182869838Y-91068970D03*
X178021755Y-102120260D03*
X180000000Y-101000000D03*
X198399990Y-100500000D03*
X198899990Y-99657055D03*
X199000000Y-117500000D03*
X191500000Y-124000000D03*
X179000000Y-100500000D03*
X199500000Y-116500000D03*
X199500000Y-98500000D03*
D23*
X195149988Y-91850012D02*
X186539984Y-91850012D01*
X181220000Y-119665998D02*
X181220000Y-120297919D01*
X177271745Y-115717743D02*
X181220000Y-119665998D01*
X198500000Y-88500000D02*
X195149988Y-91850012D01*
X186539984Y-91850012D02*
X177271745Y-101118251D01*
X177271745Y-101118251D02*
X177271745Y-115717743D01*
X181220000Y-120297919D02*
X181220000Y-121500000D01*
X197700000Y-80000000D02*
X197700000Y-81300000D01*
X197700000Y-81300000D02*
X199800001Y-83400001D01*
X199800001Y-83400001D02*
X199800001Y-87199999D01*
X199800001Y-87199999D02*
X199349999Y-87650001D01*
X199349999Y-87650001D02*
X198500000Y-88500000D01*
D24*
X189000000Y-88500000D02*
X189774999Y-87725001D01*
X189774999Y-87725001D02*
X189774999Y-83675001D01*
X189774999Y-83675001D02*
X192300000Y-81150000D01*
X192300000Y-81150000D02*
X192300000Y-80000000D01*
D25*
X188250000Y-96500000D02*
X188250000Y-94500000D01*
X188050000Y-98950000D02*
X188050000Y-96700000D01*
X188050000Y-96700000D02*
X188250000Y-96500000D01*
X193650000Y-98625000D02*
X192275000Y-98625000D01*
X192275000Y-98625000D02*
X191950000Y-98950000D01*
X194000000Y-118500000D02*
X190250000Y-118500000D01*
X182500000Y-111000000D02*
X182200001Y-111299999D01*
X182200001Y-111299999D02*
X182200001Y-119940001D01*
X182200001Y-119940001D02*
X182910001Y-120650001D01*
X182910001Y-120650001D02*
X183760000Y-121500000D01*
X185500000Y-94000000D02*
X185500000Y-94500000D01*
X185500000Y-94500000D02*
X182500000Y-97500000D01*
X186750000Y-96500000D02*
X185500000Y-96500000D01*
X186750000Y-96500000D02*
X186750000Y-98225000D01*
X186750000Y-98225000D02*
X186350000Y-98625000D01*
X186350000Y-107725000D02*
X180860171Y-107725000D01*
X180860171Y-107725000D02*
X180600010Y-107464839D01*
X180600010Y-107464839D02*
X180600010Y-107162304D01*
X180600010Y-107162304D02*
X180600010Y-106738040D01*
X194504714Y-116646742D02*
X194804713Y-116346743D01*
X193975724Y-117175732D02*
X194504714Y-116646742D01*
X184675732Y-117175732D02*
X193975724Y-117175732D01*
X183500000Y-116000000D02*
X184675732Y-117175732D01*
X195274990Y-108375000D02*
X195399990Y-108500000D01*
X193650000Y-108375000D02*
X195274990Y-108375000D01*
X193650000Y-107725000D02*
X195950010Y-107725000D01*
X195950010Y-107725000D02*
X196000000Y-107675010D01*
X196000000Y-114500000D02*
X195700001Y-114799999D01*
X195700001Y-114799999D02*
X187200001Y-114799999D01*
X187200001Y-114799999D02*
X186849999Y-115150001D01*
X186849999Y-115150001D02*
X186000000Y-116000000D01*
X196890684Y-107075000D02*
X196899990Y-107065694D01*
X193650000Y-107075000D02*
X196890684Y-107075000D01*
X197000000Y-112500000D02*
X196700001Y-112200001D01*
X196700001Y-112200001D02*
X188799999Y-112200001D01*
X188799999Y-112200001D02*
X188500000Y-112500000D01*
X197424979Y-106425000D02*
X197499979Y-106500000D01*
X193650000Y-106425000D02*
X197424979Y-106425000D01*
X191000000Y-111500000D02*
X197499979Y-111500000D01*
X199848058Y-115730917D02*
X200148057Y-116030916D01*
X193769083Y-115730917D02*
X199848058Y-115730917D01*
X193500000Y-116000000D02*
X193769083Y-115730917D01*
X193650000Y-105125000D02*
X200092693Y-105125000D01*
X200092693Y-105125000D02*
X200100010Y-105117683D01*
X185550000Y-107075000D02*
X185500010Y-107124990D01*
X186350000Y-107075000D02*
X185550000Y-107075000D01*
X185500010Y-107124990D02*
X181724471Y-107124990D01*
X181724471Y-107124990D02*
X181300207Y-107124990D01*
X186350000Y-108375000D02*
X183625000Y-108375000D01*
X183625000Y-108375000D02*
X183500000Y-108500000D01*
X193650000Y-105775000D02*
X197871222Y-105775000D01*
X193500000Y-113500000D02*
X197899990Y-113500000D01*
X197871222Y-105775000D02*
X197899990Y-105746232D01*
X181049990Y-105775000D02*
X181000000Y-105725010D01*
X186350000Y-105775000D02*
X181049990Y-105775000D01*
X186350000Y-106425000D02*
X183575000Y-106425000D01*
X183575000Y-106425000D02*
X183500000Y-106500000D01*
X185049990Y-103825000D02*
X185000000Y-103775010D01*
X186350000Y-103825000D02*
X185049990Y-103825000D01*
X195825000Y-103825000D02*
X196000000Y-104000000D01*
X193650000Y-103825000D02*
X195825000Y-103825000D01*
X180900009Y-104038039D02*
X180600010Y-103738040D01*
X181986970Y-105125000D02*
X180900009Y-104038039D01*
X186350000Y-105125000D02*
X181986970Y-105125000D01*
X181949980Y-103175000D02*
X181899990Y-103125010D01*
X186350000Y-103175000D02*
X181949980Y-103175000D01*
X186350000Y-104475000D02*
X184484296Y-104475000D01*
X184484296Y-104475000D02*
X184434306Y-104524990D01*
X193650000Y-102525000D02*
X197874990Y-102525000D01*
X197874990Y-102525000D02*
X197899990Y-102500000D01*
X198500000Y-96500000D02*
X191500000Y-96500000D01*
X193650000Y-101875000D02*
X199975010Y-101875000D01*
X199975010Y-101875000D02*
X200100010Y-102000000D01*
X199500000Y-95500000D02*
X192500000Y-95500000D01*
X193650000Y-101225000D02*
X196450010Y-101225000D01*
X196450010Y-101225000D02*
X196500000Y-101175010D01*
X196500000Y-94000000D02*
X193500000Y-94000000D01*
X197075736Y-104500000D02*
X197500000Y-104500000D01*
X194575002Y-104600002D02*
X196975734Y-104600002D01*
X194450000Y-104475000D02*
X194575002Y-104600002D01*
X193650000Y-104475000D02*
X194450000Y-104475000D01*
X196975734Y-104600002D02*
X197075736Y-104500000D01*
X193650000Y-103175000D02*
X200325000Y-103175000D01*
X200325000Y-103175000D02*
X200500000Y-103000000D01*
X184061556Y-101225000D02*
X184005783Y-101169227D01*
X186350000Y-101225000D02*
X184061556Y-101225000D01*
X190500000Y-90500000D02*
X192500000Y-88500000D01*
X184500000Y-90500000D02*
X190500000Y-90500000D01*
X186350000Y-101875000D02*
X183225010Y-101875000D01*
X183225010Y-101875000D02*
X183100010Y-102000000D01*
X183294102Y-91068970D02*
X183325142Y-91100010D01*
X187655647Y-91100010D02*
X188079911Y-91100010D01*
X183325142Y-91100010D02*
X187655647Y-91100010D01*
X182869838Y-91068970D02*
X183294102Y-91068970D01*
X182232256Y-102120260D02*
X178446019Y-102120260D01*
X178446019Y-102120260D02*
X178021755Y-102120260D01*
X185474998Y-102600002D02*
X182711998Y-102600002D01*
X185550000Y-102525000D02*
X185474998Y-102600002D01*
X182711998Y-102600002D02*
X182232256Y-102120260D01*
X186350000Y-102525000D02*
X185550000Y-102525000D01*
X180299999Y-100700001D02*
X180000000Y-101000000D01*
X180430774Y-100569226D02*
X180299999Y-100700001D01*
X185544226Y-100569226D02*
X180430774Y-100569226D01*
X185550000Y-100575000D02*
X185544226Y-100569226D01*
X186350000Y-100575000D02*
X185550000Y-100575000D01*
X193650000Y-100575000D02*
X198324990Y-100575000D01*
X198324990Y-100575000D02*
X198399990Y-100500000D01*
X193650000Y-99925000D02*
X194450000Y-99925000D01*
X194450000Y-99925000D02*
X194699989Y-99675011D01*
X194699989Y-99675011D02*
X198882034Y-99675011D01*
X198882034Y-99675011D02*
X198899990Y-99657055D01*
X199000000Y-117500000D02*
X197920000Y-117500000D01*
X197920000Y-117500000D02*
X193920000Y-121500000D01*
X191500000Y-124000000D02*
X191500000Y-121620000D01*
X191500000Y-121620000D02*
X191380000Y-121500000D01*
X186350000Y-99925000D02*
X179575000Y-99925000D01*
X179575000Y-99925000D02*
X179000000Y-100500000D01*
X188750000Y-118500000D02*
X188750000Y-121410000D01*
X188750000Y-121410000D02*
X188840000Y-121500000D01*
X199500000Y-116500000D02*
X195539458Y-116500000D01*
X195539458Y-116500000D02*
X194463716Y-117575742D01*
X189674258Y-117575742D02*
X188750000Y-118500000D01*
X194463716Y-117575742D02*
X189674258Y-117575742D01*
X198394041Y-99275000D02*
X198869042Y-98799999D01*
X198869042Y-98799999D02*
X199200001Y-98799999D01*
X199200001Y-98799999D02*
X199500000Y-98500000D01*
X193650000Y-99275000D02*
X198394041Y-99275000D01*
X185550000Y-99275000D02*
X186350000Y-99275000D01*
X184899998Y-98624998D02*
X185550000Y-99275000D01*
X184899998Y-95900002D02*
X184899998Y-98624998D01*
X186300000Y-94500000D02*
X184899998Y-95900002D01*
X186750000Y-94500000D02*
X186300000Y-94500000D01*
D26*
G36*
X202290000Y-124790000D02*
X192032065Y-124790000D01*
X192292192Y-124530327D01*
X192434838Y-124186799D01*
X192435162Y-123814833D01*
X192293117Y-123471057D01*
X192235000Y-123412838D01*
X192235000Y-122709478D01*
X192430054Y-122579147D01*
X192650000Y-122249974D01*
X192869946Y-122579147D01*
X193351715Y-122901054D01*
X193920000Y-123014093D01*
X194488285Y-122901054D01*
X194970054Y-122579147D01*
X195190000Y-122249974D01*
X195409946Y-122579147D01*
X195891715Y-122901054D01*
X196460000Y-123014093D01*
X197028285Y-122901054D01*
X197510054Y-122579147D01*
X197537850Y-122537548D01*
X197546838Y-122585317D01*
X197685910Y-122801441D01*
X197898110Y-122946431D01*
X198150000Y-122997440D01*
X199850000Y-122997440D01*
X200085317Y-122953162D01*
X200301441Y-122814090D01*
X200446431Y-122601890D01*
X200497440Y-122350000D01*
X200497440Y-120650000D01*
X200453162Y-120414683D01*
X200314090Y-120198559D01*
X200101890Y-120053569D01*
X199850000Y-120002560D01*
X198150000Y-120002560D01*
X197914683Y-120046838D01*
X197698559Y-120185910D01*
X197553569Y-120398110D01*
X197539914Y-120465541D01*
X197510054Y-120420853D01*
X197028285Y-120098946D01*
X196471293Y-119988153D01*
X198224447Y-118235000D01*
X198412581Y-118235000D01*
X198469673Y-118292192D01*
X198813201Y-118434838D01*
X199185167Y-118435162D01*
X199528943Y-118293117D01*
X199792192Y-118030327D01*
X199934838Y-117686799D01*
X199935147Y-117331873D01*
X200028943Y-117293117D01*
X200292192Y-117030327D01*
X200318876Y-116966066D01*
X200333224Y-116966078D01*
X200677000Y-116824033D01*
X200940249Y-116561243D01*
X201082895Y-116217715D01*
X201083219Y-115845749D01*
X200941174Y-115501973D01*
X200678384Y-115238724D01*
X200334856Y-115096078D01*
X200195316Y-115095956D01*
X200129330Y-115051866D01*
X199848058Y-114995917D01*
X196806480Y-114995917D01*
X196934838Y-114686799D01*
X196935162Y-114314833D01*
X196902176Y-114235000D01*
X197312571Y-114235000D01*
X197369663Y-114292192D01*
X197713191Y-114434838D01*
X198085157Y-114435162D01*
X198428933Y-114293117D01*
X198692182Y-114030327D01*
X198834828Y-113686799D01*
X198835152Y-113314833D01*
X198693107Y-112971057D01*
X198430317Y-112707808D01*
X198086789Y-112565162D01*
X197934944Y-112565030D01*
X197935147Y-112331864D01*
X198028922Y-112293117D01*
X198292171Y-112030327D01*
X198434817Y-111686799D01*
X198435141Y-111314833D01*
X198293096Y-110971057D01*
X198030306Y-110707808D01*
X197686778Y-110565162D01*
X197314812Y-110564838D01*
X196971036Y-110706883D01*
X196912817Y-110765000D01*
X191587419Y-110765000D01*
X191530327Y-110707808D01*
X191186799Y-110565162D01*
X190814833Y-110564838D01*
X190471057Y-110706883D01*
X190207808Y-110969673D01*
X190065162Y-111313201D01*
X190065030Y-111465001D01*
X188799999Y-111465001D01*
X188518727Y-111520950D01*
X188452864Y-111564958D01*
X188314833Y-111564838D01*
X187971057Y-111706883D01*
X187707808Y-111969673D01*
X187565162Y-112313201D01*
X187564838Y-112685167D01*
X187706883Y-113028943D01*
X187969673Y-113292192D01*
X188313201Y-113434838D01*
X188685167Y-113435162D01*
X189028943Y-113293117D01*
X189292192Y-113030327D01*
X189331775Y-112935001D01*
X192126673Y-112935001D01*
X192015258Y-113203319D01*
X192014743Y-113794089D01*
X192126681Y-114064999D01*
X187200001Y-114064999D01*
X186918729Y-114120948D01*
X186680278Y-114280275D01*
X186401692Y-114558862D01*
X186296681Y-114515258D01*
X185705911Y-114514743D01*
X185159914Y-114740344D01*
X184749651Y-115149892D01*
X184350108Y-114749651D01*
X184758188Y-114342283D01*
X184984742Y-113796681D01*
X184985257Y-113205911D01*
X184759656Y-112659914D01*
X184342283Y-112241812D01*
X183796681Y-112015258D01*
X183205911Y-112014743D01*
X182935001Y-112126681D01*
X182935001Y-111831933D01*
X183028943Y-111793117D01*
X183292192Y-111530327D01*
X183434838Y-111186799D01*
X183435162Y-110814833D01*
X183293117Y-110471057D01*
X183030327Y-110207808D01*
X182686799Y-110065162D01*
X182314833Y-110064838D01*
X181971057Y-110206883D01*
X181707808Y-110469673D01*
X181565162Y-110813201D01*
X181565040Y-110952741D01*
X181520950Y-111018727D01*
X181465001Y-111299999D01*
X181465001Y-112085151D01*
X181296681Y-112015258D01*
X180705911Y-112014743D01*
X180159914Y-112240344D01*
X179741812Y-112657717D01*
X179515258Y-113203319D01*
X179514743Y-113794089D01*
X179740344Y-114340086D01*
X179941667Y-114541761D01*
X179914683Y-114546838D01*
X179698559Y-114685910D01*
X179553569Y-114898110D01*
X179502560Y-115150000D01*
X179502560Y-116696978D01*
X178156745Y-115351163D01*
X178156745Y-103055378D01*
X178206922Y-103055422D01*
X178550698Y-102913377D01*
X178608917Y-102855260D01*
X180288069Y-102855260D01*
X180071067Y-102944923D01*
X179807818Y-103207713D01*
X179665172Y-103551241D01*
X179664848Y-103923207D01*
X179806893Y-104266983D01*
X180069683Y-104530232D01*
X180413211Y-104672878D01*
X180495474Y-104672950D01*
X180671568Y-104849044D01*
X180471057Y-104931893D01*
X180207808Y-105194683D01*
X180065162Y-105538211D01*
X180064838Y-105910177D01*
X180078009Y-105942054D01*
X180071067Y-105944923D01*
X179807818Y-106207713D01*
X179665172Y-106551241D01*
X179664848Y-106923207D01*
X179806893Y-107266983D01*
X179865010Y-107325202D01*
X179865010Y-107464839D01*
X179906816Y-107675010D01*
X179920959Y-107746111D01*
X180080287Y-107984562D01*
X180340447Y-108244723D01*
X180535421Y-108375000D01*
X180578899Y-108404051D01*
X180860171Y-108460000D01*
X182565034Y-108460000D01*
X182564838Y-108685167D01*
X182706883Y-109028943D01*
X182969673Y-109292192D01*
X183313201Y-109434838D01*
X183685167Y-109435162D01*
X184028943Y-109293117D01*
X184212380Y-109110000D01*
X185408203Y-109110000D01*
X185498110Y-109171431D01*
X185750000Y-109222440D01*
X186804818Y-109222440D01*
X186861673Y-109359699D01*
X187040302Y-109538327D01*
X187273691Y-109635000D01*
X189714250Y-109635000D01*
X189873000Y-109476250D01*
X189873000Y-109254076D01*
X190001937Y-109200669D01*
X190127000Y-109244347D01*
X190127000Y-109476250D01*
X190285750Y-109635000D01*
X192726309Y-109635000D01*
X192959698Y-109538327D01*
X193138327Y-109359699D01*
X193195182Y-109222440D01*
X194250000Y-109222440D01*
X194485317Y-109178162D01*
X194591244Y-109110000D01*
X194687789Y-109110000D01*
X194869663Y-109292192D01*
X195213191Y-109434838D01*
X195585157Y-109435162D01*
X195928933Y-109293117D01*
X196192182Y-109030327D01*
X196334828Y-108686799D01*
X196334949Y-108548284D01*
X196528943Y-108468127D01*
X196792192Y-108205337D01*
X196877176Y-108000675D01*
X197085157Y-108000856D01*
X197428933Y-107858811D01*
X197692182Y-107596021D01*
X197774268Y-107398338D01*
X198028922Y-107293117D01*
X198292171Y-107030327D01*
X198434817Y-106686799D01*
X198434951Y-106533342D01*
X198692182Y-106276559D01*
X198834828Y-105933031D01*
X198834892Y-105860000D01*
X199519895Y-105860000D01*
X199569683Y-105909875D01*
X199913211Y-106052521D01*
X200285177Y-106052845D01*
X200628953Y-105910800D01*
X200892202Y-105648010D01*
X201034848Y-105304482D01*
X201035172Y-104932516D01*
X200893127Y-104588740D01*
X200630337Y-104325491D01*
X200286809Y-104182845D01*
X199914843Y-104182521D01*
X199571067Y-104324566D01*
X199505519Y-104390000D01*
X198435097Y-104390000D01*
X198435162Y-104314833D01*
X198293117Y-103971057D01*
X198232166Y-103910000D01*
X200253385Y-103910000D01*
X200313201Y-103934838D01*
X200685167Y-103935162D01*
X201028943Y-103793117D01*
X201292192Y-103530327D01*
X201434838Y-103186799D01*
X201435162Y-102814833D01*
X201293117Y-102471057D01*
X201030327Y-102207808D01*
X201026742Y-102206320D01*
X201034848Y-102186799D01*
X201035172Y-101814833D01*
X200893127Y-101471057D01*
X200630337Y-101207808D01*
X200286809Y-101065162D01*
X199914843Y-101064838D01*
X199732937Y-101140000D01*
X199082317Y-101140000D01*
X199192182Y-101030327D01*
X199334828Y-100686799D01*
X199335000Y-100488984D01*
X199428933Y-100450172D01*
X199692182Y-100187382D01*
X199834828Y-99843854D01*
X199835152Y-99471888D01*
X199800318Y-99387583D01*
X200028943Y-99293117D01*
X200292192Y-99030327D01*
X200434838Y-98686799D01*
X200435162Y-98314833D01*
X200293117Y-97971057D01*
X200030327Y-97707808D01*
X199686799Y-97565162D01*
X199314833Y-97564838D01*
X198971057Y-97706883D01*
X198707808Y-97969673D01*
X198650145Y-98108541D01*
X198587770Y-98120948D01*
X198349319Y-98280275D01*
X198089595Y-98540000D01*
X194885000Y-98540000D01*
X194885000Y-98497998D01*
X194753252Y-98497998D01*
X194885000Y-98366250D01*
X194885000Y-98298690D01*
X194788327Y-98065301D01*
X194609698Y-97886673D01*
X194376309Y-97790000D01*
X193935750Y-97790000D01*
X193777000Y-97948750D01*
X193777000Y-98427560D01*
X193523000Y-98427560D01*
X193523000Y-97948750D01*
X193364250Y-97790000D01*
X193200334Y-97790000D01*
X193138327Y-97640301D01*
X192959698Y-97461673D01*
X192726309Y-97365000D01*
X191854972Y-97365000D01*
X192028943Y-97293117D01*
X192087162Y-97235000D01*
X197912581Y-97235000D01*
X197969673Y-97292192D01*
X198313201Y-97434838D01*
X198685167Y-97435162D01*
X199028943Y-97293117D01*
X199292192Y-97030327D01*
X199434838Y-96686799D01*
X199435057Y-96434944D01*
X199685167Y-96435162D01*
X200028943Y-96293117D01*
X200292192Y-96030327D01*
X200434838Y-95686799D01*
X200435162Y-95314833D01*
X200293117Y-94971057D01*
X200030327Y-94707808D01*
X199686799Y-94565162D01*
X199314833Y-94564838D01*
X198971057Y-94706883D01*
X198912838Y-94765000D01*
X197057109Y-94765000D01*
X197292192Y-94530327D01*
X197434838Y-94186799D01*
X197435162Y-93814833D01*
X197293117Y-93471057D01*
X197030327Y-93207808D01*
X196686799Y-93065162D01*
X196314833Y-93064838D01*
X195971057Y-93206883D01*
X195912838Y-93265000D01*
X194087419Y-93265000D01*
X194030327Y-93207808D01*
X193686799Y-93065162D01*
X193314833Y-93064838D01*
X192971057Y-93206883D01*
X192707808Y-93469673D01*
X192565162Y-93813201D01*
X192564838Y-94185167D01*
X192706883Y-94528943D01*
X192782856Y-94605048D01*
X192686799Y-94565162D01*
X192314833Y-94564838D01*
X191971057Y-94706883D01*
X191707808Y-94969673D01*
X191565162Y-95313201D01*
X191564943Y-95565056D01*
X191314833Y-95564838D01*
X190971057Y-95706883D01*
X190707808Y-95969673D01*
X190565162Y-96313201D01*
X190564838Y-96685167D01*
X190706883Y-97028943D01*
X190969673Y-97292192D01*
X191145013Y-97365000D01*
X190285750Y-97365000D01*
X190127000Y-97523750D01*
X190127000Y-97745924D01*
X189998063Y-97799331D01*
X189873000Y-97755653D01*
X189873000Y-97523750D01*
X189714250Y-97365000D01*
X189058025Y-97365000D01*
X189188327Y-97234699D01*
X189285000Y-97001310D01*
X189285000Y-96785750D01*
X189126250Y-96627000D01*
X188377000Y-96627000D01*
X188377000Y-96647000D01*
X188123000Y-96647000D01*
X188123000Y-96627000D01*
X188103000Y-96627000D01*
X188103000Y-96373000D01*
X188123000Y-96373000D01*
X188123000Y-95648750D01*
X188012750Y-95538500D01*
X188125000Y-95426250D01*
X188125000Y-94627000D01*
X188375000Y-94627000D01*
X188375000Y-95426250D01*
X188487250Y-95538500D01*
X188377000Y-95648750D01*
X188377000Y-96373000D01*
X189126250Y-96373000D01*
X189285000Y-96214250D01*
X189285000Y-95998690D01*
X189188327Y-95765301D01*
X189009698Y-95586673D01*
X188815984Y-95506434D01*
X188859698Y-95488327D01*
X189038327Y-95309699D01*
X189135000Y-95076310D01*
X189135000Y-94785750D01*
X188976250Y-94627000D01*
X188375000Y-94627000D01*
X188125000Y-94627000D01*
X188103000Y-94627000D01*
X188103000Y-94373000D01*
X188125000Y-94373000D01*
X188125000Y-93573750D01*
X188375000Y-93573750D01*
X188375000Y-94373000D01*
X188976250Y-94373000D01*
X189135000Y-94214250D01*
X189135000Y-93923690D01*
X189038327Y-93690301D01*
X188859698Y-93511673D01*
X188626309Y-93415000D01*
X188533750Y-93415000D01*
X188375000Y-93573750D01*
X188125000Y-93573750D01*
X187966250Y-93415000D01*
X187873691Y-93415000D01*
X187640302Y-93511673D01*
X187499064Y-93652910D01*
X187464090Y-93598559D01*
X187251890Y-93453569D01*
X187000000Y-93402560D01*
X186500000Y-93402560D01*
X186268267Y-93446164D01*
X186231871Y-93409704D01*
X186906563Y-92735012D01*
X195149983Y-92735012D01*
X195149988Y-92735013D01*
X195432472Y-92678822D01*
X195488663Y-92667645D01*
X195775778Y-92475802D01*
X198266782Y-89984797D01*
X198794089Y-89985257D01*
X199340086Y-89759656D01*
X199758188Y-89342283D01*
X199984742Y-88796681D01*
X199985204Y-88266376D01*
X200425788Y-87825791D01*
X200425791Y-87825789D01*
X200617634Y-87538674D01*
X200628811Y-87482483D01*
X200685002Y-87199999D01*
X200685001Y-87199994D01*
X200685001Y-84852630D01*
X201003266Y-84984785D01*
X201494579Y-84985214D01*
X201948657Y-84797592D01*
X202290000Y-84456845D01*
X202290000Y-124790000D01*
X202290000Y-124790000D01*
G37*
X202290000Y-124790000D02*
X192032065Y-124790000D01*
X192292192Y-124530327D01*
X192434838Y-124186799D01*
X192435162Y-123814833D01*
X192293117Y-123471057D01*
X192235000Y-123412838D01*
X192235000Y-122709478D01*
X192430054Y-122579147D01*
X192650000Y-122249974D01*
X192869946Y-122579147D01*
X193351715Y-122901054D01*
X193920000Y-123014093D01*
X194488285Y-122901054D01*
X194970054Y-122579147D01*
X195190000Y-122249974D01*
X195409946Y-122579147D01*
X195891715Y-122901054D01*
X196460000Y-123014093D01*
X197028285Y-122901054D01*
X197510054Y-122579147D01*
X197537850Y-122537548D01*
X197546838Y-122585317D01*
X197685910Y-122801441D01*
X197898110Y-122946431D01*
X198150000Y-122997440D01*
X199850000Y-122997440D01*
X200085317Y-122953162D01*
X200301441Y-122814090D01*
X200446431Y-122601890D01*
X200497440Y-122350000D01*
X200497440Y-120650000D01*
X200453162Y-120414683D01*
X200314090Y-120198559D01*
X200101890Y-120053569D01*
X199850000Y-120002560D01*
X198150000Y-120002560D01*
X197914683Y-120046838D01*
X197698559Y-120185910D01*
X197553569Y-120398110D01*
X197539914Y-120465541D01*
X197510054Y-120420853D01*
X197028285Y-120098946D01*
X196471293Y-119988153D01*
X198224447Y-118235000D01*
X198412581Y-118235000D01*
X198469673Y-118292192D01*
X198813201Y-118434838D01*
X199185167Y-118435162D01*
X199528943Y-118293117D01*
X199792192Y-118030327D01*
X199934838Y-117686799D01*
X199935147Y-117331873D01*
X200028943Y-117293117D01*
X200292192Y-117030327D01*
X200318876Y-116966066D01*
X200333224Y-116966078D01*
X200677000Y-116824033D01*
X200940249Y-116561243D01*
X201082895Y-116217715D01*
X201083219Y-115845749D01*
X200941174Y-115501973D01*
X200678384Y-115238724D01*
X200334856Y-115096078D01*
X200195316Y-115095956D01*
X200129330Y-115051866D01*
X199848058Y-114995917D01*
X196806480Y-114995917D01*
X196934838Y-114686799D01*
X196935162Y-114314833D01*
X196902176Y-114235000D01*
X197312571Y-114235000D01*
X197369663Y-114292192D01*
X197713191Y-114434838D01*
X198085157Y-114435162D01*
X198428933Y-114293117D01*
X198692182Y-114030327D01*
X198834828Y-113686799D01*
X198835152Y-113314833D01*
X198693107Y-112971057D01*
X198430317Y-112707808D01*
X198086789Y-112565162D01*
X197934944Y-112565030D01*
X197935147Y-112331864D01*
X198028922Y-112293117D01*
X198292171Y-112030327D01*
X198434817Y-111686799D01*
X198435141Y-111314833D01*
X198293096Y-110971057D01*
X198030306Y-110707808D01*
X197686778Y-110565162D01*
X197314812Y-110564838D01*
X196971036Y-110706883D01*
X196912817Y-110765000D01*
X191587419Y-110765000D01*
X191530327Y-110707808D01*
X191186799Y-110565162D01*
X190814833Y-110564838D01*
X190471057Y-110706883D01*
X190207808Y-110969673D01*
X190065162Y-111313201D01*
X190065030Y-111465001D01*
X188799999Y-111465001D01*
X188518727Y-111520950D01*
X188452864Y-111564958D01*
X188314833Y-111564838D01*
X187971057Y-111706883D01*
X187707808Y-111969673D01*
X187565162Y-112313201D01*
X187564838Y-112685167D01*
X187706883Y-113028943D01*
X187969673Y-113292192D01*
X188313201Y-113434838D01*
X188685167Y-113435162D01*
X189028943Y-113293117D01*
X189292192Y-113030327D01*
X189331775Y-112935001D01*
X192126673Y-112935001D01*
X192015258Y-113203319D01*
X192014743Y-113794089D01*
X192126681Y-114064999D01*
X187200001Y-114064999D01*
X186918729Y-114120948D01*
X186680278Y-114280275D01*
X186401692Y-114558862D01*
X186296681Y-114515258D01*
X185705911Y-114514743D01*
X185159914Y-114740344D01*
X184749651Y-115149892D01*
X184350108Y-114749651D01*
X184758188Y-114342283D01*
X184984742Y-113796681D01*
X184985257Y-113205911D01*
X184759656Y-112659914D01*
X184342283Y-112241812D01*
X183796681Y-112015258D01*
X183205911Y-112014743D01*
X182935001Y-112126681D01*
X182935001Y-111831933D01*
X183028943Y-111793117D01*
X183292192Y-111530327D01*
X183434838Y-111186799D01*
X183435162Y-110814833D01*
X183293117Y-110471057D01*
X183030327Y-110207808D01*
X182686799Y-110065162D01*
X182314833Y-110064838D01*
X181971057Y-110206883D01*
X181707808Y-110469673D01*
X181565162Y-110813201D01*
X181565040Y-110952741D01*
X181520950Y-111018727D01*
X181465001Y-111299999D01*
X181465001Y-112085151D01*
X181296681Y-112015258D01*
X180705911Y-112014743D01*
X180159914Y-112240344D01*
X179741812Y-112657717D01*
X179515258Y-113203319D01*
X179514743Y-113794089D01*
X179740344Y-114340086D01*
X179941667Y-114541761D01*
X179914683Y-114546838D01*
X179698559Y-114685910D01*
X179553569Y-114898110D01*
X179502560Y-115150000D01*
X179502560Y-116696978D01*
X178156745Y-115351163D01*
X178156745Y-103055378D01*
X178206922Y-103055422D01*
X178550698Y-102913377D01*
X178608917Y-102855260D01*
X180288069Y-102855260D01*
X180071067Y-102944923D01*
X179807818Y-103207713D01*
X179665172Y-103551241D01*
X179664848Y-103923207D01*
X179806893Y-104266983D01*
X180069683Y-104530232D01*
X180413211Y-104672878D01*
X180495474Y-104672950D01*
X180671568Y-104849044D01*
X180471057Y-104931893D01*
X180207808Y-105194683D01*
X180065162Y-105538211D01*
X180064838Y-105910177D01*
X180078009Y-105942054D01*
X180071067Y-105944923D01*
X179807818Y-106207713D01*
X179665172Y-106551241D01*
X179664848Y-106923207D01*
X179806893Y-107266983D01*
X179865010Y-107325202D01*
X179865010Y-107464839D01*
X179906816Y-107675010D01*
X179920959Y-107746111D01*
X180080287Y-107984562D01*
X180340447Y-108244723D01*
X180535421Y-108375000D01*
X180578899Y-108404051D01*
X180860171Y-108460000D01*
X182565034Y-108460000D01*
X182564838Y-108685167D01*
X182706883Y-109028943D01*
X182969673Y-109292192D01*
X183313201Y-109434838D01*
X183685167Y-109435162D01*
X184028943Y-109293117D01*
X184212380Y-109110000D01*
X185408203Y-109110000D01*
X185498110Y-109171431D01*
X185750000Y-109222440D01*
X186804818Y-109222440D01*
X186861673Y-109359699D01*
X187040302Y-109538327D01*
X187273691Y-109635000D01*
X189714250Y-109635000D01*
X189873000Y-109476250D01*
X189873000Y-109254076D01*
X190001937Y-109200669D01*
X190127000Y-109244347D01*
X190127000Y-109476250D01*
X190285750Y-109635000D01*
X192726309Y-109635000D01*
X192959698Y-109538327D01*
X193138327Y-109359699D01*
X193195182Y-109222440D01*
X194250000Y-109222440D01*
X194485317Y-109178162D01*
X194591244Y-109110000D01*
X194687789Y-109110000D01*
X194869663Y-109292192D01*
X195213191Y-109434838D01*
X195585157Y-109435162D01*
X195928933Y-109293117D01*
X196192182Y-109030327D01*
X196334828Y-108686799D01*
X196334949Y-108548284D01*
X196528943Y-108468127D01*
X196792192Y-108205337D01*
X196877176Y-108000675D01*
X197085157Y-108000856D01*
X197428933Y-107858811D01*
X197692182Y-107596021D01*
X197774268Y-107398338D01*
X198028922Y-107293117D01*
X198292171Y-107030327D01*
X198434817Y-106686799D01*
X198434951Y-106533342D01*
X198692182Y-106276559D01*
X198834828Y-105933031D01*
X198834892Y-105860000D01*
X199519895Y-105860000D01*
X199569683Y-105909875D01*
X199913211Y-106052521D01*
X200285177Y-106052845D01*
X200628953Y-105910800D01*
X200892202Y-105648010D01*
X201034848Y-105304482D01*
X201035172Y-104932516D01*
X200893127Y-104588740D01*
X200630337Y-104325491D01*
X200286809Y-104182845D01*
X199914843Y-104182521D01*
X199571067Y-104324566D01*
X199505519Y-104390000D01*
X198435097Y-104390000D01*
X198435162Y-104314833D01*
X198293117Y-103971057D01*
X198232166Y-103910000D01*
X200253385Y-103910000D01*
X200313201Y-103934838D01*
X200685167Y-103935162D01*
X201028943Y-103793117D01*
X201292192Y-103530327D01*
X201434838Y-103186799D01*
X201435162Y-102814833D01*
X201293117Y-102471057D01*
X201030327Y-102207808D01*
X201026742Y-102206320D01*
X201034848Y-102186799D01*
X201035172Y-101814833D01*
X200893127Y-101471057D01*
X200630337Y-101207808D01*
X200286809Y-101065162D01*
X199914843Y-101064838D01*
X199732937Y-101140000D01*
X199082317Y-101140000D01*
X199192182Y-101030327D01*
X199334828Y-100686799D01*
X199335000Y-100488984D01*
X199428933Y-100450172D01*
X199692182Y-100187382D01*
X199834828Y-99843854D01*
X199835152Y-99471888D01*
X199800318Y-99387583D01*
X200028943Y-99293117D01*
X200292192Y-99030327D01*
X200434838Y-98686799D01*
X200435162Y-98314833D01*
X200293117Y-97971057D01*
X200030327Y-97707808D01*
X199686799Y-97565162D01*
X199314833Y-97564838D01*
X198971057Y-97706883D01*
X198707808Y-97969673D01*
X198650145Y-98108541D01*
X198587770Y-98120948D01*
X198349319Y-98280275D01*
X198089595Y-98540000D01*
X194885000Y-98540000D01*
X194885000Y-98497998D01*
X194753252Y-98497998D01*
X194885000Y-98366250D01*
X194885000Y-98298690D01*
X194788327Y-98065301D01*
X194609698Y-97886673D01*
X194376309Y-97790000D01*
X193935750Y-97790000D01*
X193777000Y-97948750D01*
X193777000Y-98427560D01*
X193523000Y-98427560D01*
X193523000Y-97948750D01*
X193364250Y-97790000D01*
X193200334Y-97790000D01*
X193138327Y-97640301D01*
X192959698Y-97461673D01*
X192726309Y-97365000D01*
X191854972Y-97365000D01*
X192028943Y-97293117D01*
X192087162Y-97235000D01*
X197912581Y-97235000D01*
X197969673Y-97292192D01*
X198313201Y-97434838D01*
X198685167Y-97435162D01*
X199028943Y-97293117D01*
X199292192Y-97030327D01*
X199434838Y-96686799D01*
X199435057Y-96434944D01*
X199685167Y-96435162D01*
X200028943Y-96293117D01*
X200292192Y-96030327D01*
X200434838Y-95686799D01*
X200435162Y-95314833D01*
X200293117Y-94971057D01*
X200030327Y-94707808D01*
X199686799Y-94565162D01*
X199314833Y-94564838D01*
X198971057Y-94706883D01*
X198912838Y-94765000D01*
X197057109Y-94765000D01*
X197292192Y-94530327D01*
X197434838Y-94186799D01*
X197435162Y-93814833D01*
X197293117Y-93471057D01*
X197030327Y-93207808D01*
X196686799Y-93065162D01*
X196314833Y-93064838D01*
X195971057Y-93206883D01*
X195912838Y-93265000D01*
X194087419Y-93265000D01*
X194030327Y-93207808D01*
X193686799Y-93065162D01*
X193314833Y-93064838D01*
X192971057Y-93206883D01*
X192707808Y-93469673D01*
X192565162Y-93813201D01*
X192564838Y-94185167D01*
X192706883Y-94528943D01*
X192782856Y-94605048D01*
X192686799Y-94565162D01*
X192314833Y-94564838D01*
X191971057Y-94706883D01*
X191707808Y-94969673D01*
X191565162Y-95313201D01*
X191564943Y-95565056D01*
X191314833Y-95564838D01*
X190971057Y-95706883D01*
X190707808Y-95969673D01*
X190565162Y-96313201D01*
X190564838Y-96685167D01*
X190706883Y-97028943D01*
X190969673Y-97292192D01*
X191145013Y-97365000D01*
X190285750Y-97365000D01*
X190127000Y-97523750D01*
X190127000Y-97745924D01*
X189998063Y-97799331D01*
X189873000Y-97755653D01*
X189873000Y-97523750D01*
X189714250Y-97365000D01*
X189058025Y-97365000D01*
X189188327Y-97234699D01*
X189285000Y-97001310D01*
X189285000Y-96785750D01*
X189126250Y-96627000D01*
X188377000Y-96627000D01*
X188377000Y-96647000D01*
X188123000Y-96647000D01*
X188123000Y-96627000D01*
X188103000Y-96627000D01*
X188103000Y-96373000D01*
X188123000Y-96373000D01*
X188123000Y-95648750D01*
X188012750Y-95538500D01*
X188125000Y-95426250D01*
X188125000Y-94627000D01*
X188375000Y-94627000D01*
X188375000Y-95426250D01*
X188487250Y-95538500D01*
X188377000Y-95648750D01*
X188377000Y-96373000D01*
X189126250Y-96373000D01*
X189285000Y-96214250D01*
X189285000Y-95998690D01*
X189188327Y-95765301D01*
X189009698Y-95586673D01*
X188815984Y-95506434D01*
X188859698Y-95488327D01*
X189038327Y-95309699D01*
X189135000Y-95076310D01*
X189135000Y-94785750D01*
X188976250Y-94627000D01*
X188375000Y-94627000D01*
X188125000Y-94627000D01*
X188103000Y-94627000D01*
X188103000Y-94373000D01*
X188125000Y-94373000D01*
X188125000Y-93573750D01*
X188375000Y-93573750D01*
X188375000Y-94373000D01*
X188976250Y-94373000D01*
X189135000Y-94214250D01*
X189135000Y-93923690D01*
X189038327Y-93690301D01*
X188859698Y-93511673D01*
X188626309Y-93415000D01*
X188533750Y-93415000D01*
X188375000Y-93573750D01*
X188125000Y-93573750D01*
X187966250Y-93415000D01*
X187873691Y-93415000D01*
X187640302Y-93511673D01*
X187499064Y-93652910D01*
X187464090Y-93598559D01*
X187251890Y-93453569D01*
X187000000Y-93402560D01*
X186500000Y-93402560D01*
X186268267Y-93446164D01*
X186231871Y-93409704D01*
X186906563Y-92735012D01*
X195149983Y-92735012D01*
X195149988Y-92735013D01*
X195432472Y-92678822D01*
X195488663Y-92667645D01*
X195775778Y-92475802D01*
X198266782Y-89984797D01*
X198794089Y-89985257D01*
X199340086Y-89759656D01*
X199758188Y-89342283D01*
X199984742Y-88796681D01*
X199985204Y-88266376D01*
X200425788Y-87825791D01*
X200425791Y-87825789D01*
X200617634Y-87538674D01*
X200628811Y-87482483D01*
X200685002Y-87199999D01*
X200685001Y-87199994D01*
X200685001Y-84852630D01*
X201003266Y-84984785D01*
X201494579Y-84985214D01*
X201948657Y-84797592D01*
X202290000Y-84456845D01*
X202290000Y-124790000D01*
G36*
X183203319Y-117484742D02*
X183794089Y-117485257D01*
X183901450Y-117440897D01*
X184156008Y-117695455D01*
X184260090Y-117765000D01*
X184394460Y-117854783D01*
X184675732Y-117910732D01*
X187880762Y-117910732D01*
X187852560Y-118050000D01*
X187852560Y-118950000D01*
X187896838Y-119185317D01*
X188015000Y-119368946D01*
X188015000Y-120270477D01*
X187789946Y-120420853D01*
X187562298Y-120761553D01*
X187495183Y-120618642D01*
X187066924Y-120228355D01*
X186656890Y-120058524D01*
X186427000Y-120179845D01*
X186427000Y-121373000D01*
X186447000Y-121373000D01*
X186447000Y-121627000D01*
X186427000Y-121627000D01*
X186427000Y-122820155D01*
X186656890Y-122941476D01*
X187066924Y-122771645D01*
X187495183Y-122381358D01*
X187562298Y-122238447D01*
X187789946Y-122579147D01*
X188271715Y-122901054D01*
X188840000Y-123014093D01*
X189408285Y-122901054D01*
X189890054Y-122579147D01*
X190110000Y-122249974D01*
X190329946Y-122579147D01*
X190765000Y-122869840D01*
X190765000Y-123412581D01*
X190707808Y-123469673D01*
X190565162Y-123813201D01*
X190564838Y-124185167D01*
X190706883Y-124528943D01*
X190967485Y-124790000D01*
X178402725Y-124790000D01*
X178500046Y-124749788D01*
X178748914Y-124501354D01*
X178883766Y-124176594D01*
X178884073Y-123824949D01*
X178749788Y-123499954D01*
X178501354Y-123251086D01*
X178176594Y-123116234D01*
X177824949Y-123115927D01*
X177499954Y-123250212D01*
X177251086Y-123498646D01*
X177210000Y-123597592D01*
X177210000Y-118956262D01*
X177549515Y-119296371D01*
X178003266Y-119484785D01*
X178494579Y-119485214D01*
X178948657Y-119297592D01*
X179274620Y-118972198D01*
X180335000Y-120032577D01*
X180335000Y-120310568D01*
X180169946Y-120420853D01*
X179848039Y-120902622D01*
X179735000Y-121470907D01*
X179735000Y-121529093D01*
X179848039Y-122097378D01*
X180169946Y-122579147D01*
X180651715Y-122901054D01*
X181220000Y-123014093D01*
X181788285Y-122901054D01*
X182270054Y-122579147D01*
X182490000Y-122249974D01*
X182709946Y-122579147D01*
X183191715Y-122901054D01*
X183760000Y-123014093D01*
X184328285Y-122901054D01*
X184810054Y-122579147D01*
X185037702Y-122238447D01*
X185104817Y-122381358D01*
X185533076Y-122771645D01*
X185943110Y-122941476D01*
X186173000Y-122820155D01*
X186173000Y-121627000D01*
X186153000Y-121627000D01*
X186153000Y-121373000D01*
X186173000Y-121373000D01*
X186173000Y-120179845D01*
X185943110Y-120058524D01*
X185533076Y-120228355D01*
X185104817Y-120618642D01*
X185037702Y-120761553D01*
X184810054Y-120420853D01*
X184328285Y-120098946D01*
X183760000Y-119985907D01*
X183364103Y-120064656D01*
X182935001Y-119635555D01*
X182935001Y-117373327D01*
X183203319Y-117484742D01*
X183203319Y-117484742D01*
G37*
X183203319Y-117484742D02*
X183794089Y-117485257D01*
X183901450Y-117440897D01*
X184156008Y-117695455D01*
X184260090Y-117765000D01*
X184394460Y-117854783D01*
X184675732Y-117910732D01*
X187880762Y-117910732D01*
X187852560Y-118050000D01*
X187852560Y-118950000D01*
X187896838Y-119185317D01*
X188015000Y-119368946D01*
X188015000Y-120270477D01*
X187789946Y-120420853D01*
X187562298Y-120761553D01*
X187495183Y-120618642D01*
X187066924Y-120228355D01*
X186656890Y-120058524D01*
X186427000Y-120179845D01*
X186427000Y-121373000D01*
X186447000Y-121373000D01*
X186447000Y-121627000D01*
X186427000Y-121627000D01*
X186427000Y-122820155D01*
X186656890Y-122941476D01*
X187066924Y-122771645D01*
X187495183Y-122381358D01*
X187562298Y-122238447D01*
X187789946Y-122579147D01*
X188271715Y-122901054D01*
X188840000Y-123014093D01*
X189408285Y-122901054D01*
X189890054Y-122579147D01*
X190110000Y-122249974D01*
X190329946Y-122579147D01*
X190765000Y-122869840D01*
X190765000Y-123412581D01*
X190707808Y-123469673D01*
X190565162Y-123813201D01*
X190564838Y-124185167D01*
X190706883Y-124528943D01*
X190967485Y-124790000D01*
X178402725Y-124790000D01*
X178500046Y-124749788D01*
X178748914Y-124501354D01*
X178883766Y-124176594D01*
X178884073Y-123824949D01*
X178749788Y-123499954D01*
X178501354Y-123251086D01*
X178176594Y-123116234D01*
X177824949Y-123115927D01*
X177499954Y-123250212D01*
X177251086Y-123498646D01*
X177210000Y-123597592D01*
X177210000Y-118956262D01*
X177549515Y-119296371D01*
X178003266Y-119484785D01*
X178494579Y-119485214D01*
X178948657Y-119297592D01*
X179274620Y-118972198D01*
X180335000Y-120032577D01*
X180335000Y-120310568D01*
X180169946Y-120420853D01*
X179848039Y-120902622D01*
X179735000Y-121470907D01*
X179735000Y-121529093D01*
X179848039Y-122097378D01*
X180169946Y-122579147D01*
X180651715Y-122901054D01*
X181220000Y-123014093D01*
X181788285Y-122901054D01*
X182270054Y-122579147D01*
X182490000Y-122249974D01*
X182709946Y-122579147D01*
X183191715Y-122901054D01*
X183760000Y-123014093D01*
X184328285Y-122901054D01*
X184810054Y-122579147D01*
X185037702Y-122238447D01*
X185104817Y-122381358D01*
X185533076Y-122771645D01*
X185943110Y-122941476D01*
X186173000Y-122820155D01*
X186173000Y-121627000D01*
X186153000Y-121627000D01*
X186153000Y-121373000D01*
X186173000Y-121373000D01*
X186173000Y-120179845D01*
X185943110Y-120058524D01*
X185533076Y-120228355D01*
X185104817Y-120618642D01*
X185037702Y-120761553D01*
X184810054Y-120420853D01*
X184328285Y-120098946D01*
X183760000Y-119985907D01*
X183364103Y-120064656D01*
X182935001Y-119635555D01*
X182935001Y-117373327D01*
X183203319Y-117484742D01*
G36*
X194315898Y-120064656D02*
X193920000Y-119985907D01*
X193351715Y-120098946D01*
X192869946Y-120420853D01*
X192650000Y-120750026D01*
X192430054Y-120420853D01*
X191948285Y-120098946D01*
X191380000Y-119985907D01*
X190811715Y-120098946D01*
X190329946Y-120420853D01*
X190110000Y-120750026D01*
X189890054Y-120420853D01*
X189485000Y-120150205D01*
X189485000Y-119364975D01*
X189497969Y-119345994D01*
X189640302Y-119488327D01*
X189873691Y-119585000D01*
X189966250Y-119585000D01*
X190125000Y-119426250D01*
X190125000Y-118627000D01*
X190375000Y-118627000D01*
X190375000Y-119426250D01*
X190533750Y-119585000D01*
X190626309Y-119585000D01*
X190859698Y-119488327D01*
X191038327Y-119309699D01*
X191135000Y-119076310D01*
X191135000Y-118785750D01*
X190976250Y-118627000D01*
X190375000Y-118627000D01*
X190125000Y-118627000D01*
X190103000Y-118627000D01*
X190103000Y-118373000D01*
X190125000Y-118373000D01*
X190125000Y-118353000D01*
X190375000Y-118353000D01*
X190375000Y-118373000D01*
X190976250Y-118373000D01*
X191038508Y-118310742D01*
X194463716Y-118310742D01*
X194744988Y-118254793D01*
X194983439Y-118095465D01*
X195843905Y-117235000D01*
X197145553Y-117235000D01*
X194315898Y-120064656D01*
X194315898Y-120064656D01*
G37*
X194315898Y-120064656D02*
X193920000Y-119985907D01*
X193351715Y-120098946D01*
X192869946Y-120420853D01*
X192650000Y-120750026D01*
X192430054Y-120420853D01*
X191948285Y-120098946D01*
X191380000Y-119985907D01*
X190811715Y-120098946D01*
X190329946Y-120420853D01*
X190110000Y-120750026D01*
X189890054Y-120420853D01*
X189485000Y-120150205D01*
X189485000Y-119364975D01*
X189497969Y-119345994D01*
X189640302Y-119488327D01*
X189873691Y-119585000D01*
X189966250Y-119585000D01*
X190125000Y-119426250D01*
X190125000Y-118627000D01*
X190375000Y-118627000D01*
X190375000Y-119426250D01*
X190533750Y-119585000D01*
X190626309Y-119585000D01*
X190859698Y-119488327D01*
X191038327Y-119309699D01*
X191135000Y-119076310D01*
X191135000Y-118785750D01*
X190976250Y-118627000D01*
X190375000Y-118627000D01*
X190125000Y-118627000D01*
X190103000Y-118627000D01*
X190103000Y-118373000D01*
X190125000Y-118373000D01*
X190125000Y-118353000D01*
X190375000Y-118353000D01*
X190375000Y-118373000D01*
X190976250Y-118373000D01*
X191038508Y-118310742D01*
X194463716Y-118310742D01*
X194744988Y-118254793D01*
X194983439Y-118095465D01*
X195843905Y-117235000D01*
X197145553Y-117235000D01*
X194315898Y-120064656D01*
G36*
X202290000Y-77597275D02*
X202249788Y-77499954D01*
X202001354Y-77251086D01*
X201676594Y-77116234D01*
X201324949Y-77115927D01*
X200999954Y-77250212D01*
X200751086Y-77498646D01*
X200616234Y-77823406D01*
X200615927Y-78175051D01*
X200750212Y-78500046D01*
X200998646Y-78748914D01*
X201323406Y-78883766D01*
X201675051Y-78884073D01*
X202000046Y-78749788D01*
X202248914Y-78501354D01*
X202290000Y-78402408D01*
X202290000Y-83043738D01*
X201950485Y-82703629D01*
X201496734Y-82515215D01*
X201005421Y-82514786D01*
X200551343Y-82702408D01*
X200447247Y-82806322D01*
X200425791Y-82774211D01*
X200425788Y-82774209D01*
X199099020Y-81447440D01*
X199450000Y-81447440D01*
X199685317Y-81403162D01*
X199901441Y-81264090D01*
X200046431Y-81051890D01*
X200097440Y-80800000D01*
X200097440Y-79200000D01*
X200053162Y-78964683D01*
X199914090Y-78748559D01*
X199701890Y-78603569D01*
X199450000Y-78552560D01*
X195950000Y-78552560D01*
X195714683Y-78596838D01*
X195498559Y-78735910D01*
X195353569Y-78948110D01*
X195302560Y-79200000D01*
X195302560Y-80800000D01*
X195346838Y-81035317D01*
X195485910Y-81251441D01*
X195698110Y-81396431D01*
X195950000Y-81447440D01*
X196844327Y-81447440D01*
X196871190Y-81582484D01*
X196882367Y-81638675D01*
X197074210Y-81925790D01*
X198915001Y-83766580D01*
X198915001Y-84564389D01*
X198796681Y-84515258D01*
X198205911Y-84514743D01*
X197659914Y-84740344D01*
X197249651Y-85149892D01*
X196842283Y-84741812D01*
X196296681Y-84515258D01*
X195705911Y-84514743D01*
X195159914Y-84740344D01*
X194749651Y-85149892D01*
X194342283Y-84741812D01*
X193796681Y-84515258D01*
X193205911Y-84514743D01*
X192659914Y-84740344D01*
X192249651Y-85149892D01*
X191842283Y-84741812D01*
X191296681Y-84515258D01*
X190705911Y-84514743D01*
X190159914Y-84740344D01*
X189749651Y-85149892D01*
X189342283Y-84741812D01*
X188796681Y-84515258D01*
X188205911Y-84514743D01*
X187659914Y-84740344D01*
X187249651Y-85149892D01*
X186842283Y-84741812D01*
X186296681Y-84515258D01*
X185705911Y-84514743D01*
X185159914Y-84740344D01*
X184749651Y-85149892D01*
X184342283Y-84741812D01*
X183796681Y-84515258D01*
X183205911Y-84514743D01*
X182659914Y-84740344D01*
X182249651Y-85149892D01*
X181842283Y-84741812D01*
X181296681Y-84515258D01*
X180705911Y-84514743D01*
X180159914Y-84740344D01*
X179741812Y-85157717D01*
X179515258Y-85703319D01*
X179514743Y-86294089D01*
X179740344Y-86840086D01*
X180149892Y-87250349D01*
X179741812Y-87657717D01*
X179515258Y-88203319D01*
X179514743Y-88794089D01*
X179740344Y-89340086D01*
X180157717Y-89758188D01*
X180703319Y-89984742D01*
X181294089Y-89985257D01*
X181840086Y-89759656D01*
X182250349Y-89350108D01*
X182657717Y-89758188D01*
X183203319Y-89984742D01*
X183701370Y-89985176D01*
X183565162Y-90313201D01*
X183565117Y-90365010D01*
X183488243Y-90365010D01*
X183400165Y-90276778D01*
X183056637Y-90134132D01*
X182684671Y-90133808D01*
X182340895Y-90275853D01*
X182077646Y-90538643D01*
X181935000Y-90882171D01*
X181934676Y-91254137D01*
X182076721Y-91597913D01*
X182339511Y-91861162D01*
X182683039Y-92003808D01*
X183055005Y-92004132D01*
X183398781Y-91862087D01*
X183425905Y-91835010D01*
X185303407Y-91835010D01*
X177210000Y-99928416D01*
X177210000Y-80285750D01*
X189915000Y-80285750D01*
X189915000Y-80926310D01*
X190011673Y-81159699D01*
X190190302Y-81338327D01*
X190423691Y-81435000D01*
X192014250Y-81435000D01*
X192173000Y-81276250D01*
X192173000Y-80127000D01*
X192427000Y-80127000D01*
X192427000Y-81276250D01*
X192585750Y-81435000D01*
X194176309Y-81435000D01*
X194409698Y-81338327D01*
X194588327Y-81159699D01*
X194685000Y-80926310D01*
X194685000Y-80285750D01*
X194526250Y-80127000D01*
X192427000Y-80127000D01*
X192173000Y-80127000D01*
X190073750Y-80127000D01*
X189915000Y-80285750D01*
X177210000Y-80285750D01*
X177210000Y-79073690D01*
X189915000Y-79073690D01*
X189915000Y-79714250D01*
X190073750Y-79873000D01*
X192173000Y-79873000D01*
X192173000Y-78723750D01*
X192427000Y-78723750D01*
X192427000Y-79873000D01*
X194526250Y-79873000D01*
X194685000Y-79714250D01*
X194685000Y-79073690D01*
X194588327Y-78840301D01*
X194409698Y-78661673D01*
X194176309Y-78565000D01*
X192585750Y-78565000D01*
X192427000Y-78723750D01*
X192173000Y-78723750D01*
X192014250Y-78565000D01*
X190423691Y-78565000D01*
X190190302Y-78661673D01*
X190011673Y-78840301D01*
X189915000Y-79073690D01*
X177210000Y-79073690D01*
X177210000Y-78402725D01*
X177250212Y-78500046D01*
X177498646Y-78748914D01*
X177823406Y-78883766D01*
X178175051Y-78884073D01*
X178500046Y-78749788D01*
X178748914Y-78501354D01*
X178883766Y-78176594D01*
X178884073Y-77824949D01*
X178749788Y-77499954D01*
X178501354Y-77251086D01*
X178176594Y-77116234D01*
X177824949Y-77115927D01*
X177499954Y-77250212D01*
X177251086Y-77498646D01*
X177210000Y-77597592D01*
X177210000Y-76710000D01*
X202290000Y-76710000D01*
X202290000Y-77597275D01*
X202290000Y-77597275D01*
G37*
X202290000Y-77597275D02*
X202249788Y-77499954D01*
X202001354Y-77251086D01*
X201676594Y-77116234D01*
X201324949Y-77115927D01*
X200999954Y-77250212D01*
X200751086Y-77498646D01*
X200616234Y-77823406D01*
X200615927Y-78175051D01*
X200750212Y-78500046D01*
X200998646Y-78748914D01*
X201323406Y-78883766D01*
X201675051Y-78884073D01*
X202000046Y-78749788D01*
X202248914Y-78501354D01*
X202290000Y-78402408D01*
X202290000Y-83043738D01*
X201950485Y-82703629D01*
X201496734Y-82515215D01*
X201005421Y-82514786D01*
X200551343Y-82702408D01*
X200447247Y-82806322D01*
X200425791Y-82774211D01*
X200425788Y-82774209D01*
X199099020Y-81447440D01*
X199450000Y-81447440D01*
X199685317Y-81403162D01*
X199901441Y-81264090D01*
X200046431Y-81051890D01*
X200097440Y-80800000D01*
X200097440Y-79200000D01*
X200053162Y-78964683D01*
X199914090Y-78748559D01*
X199701890Y-78603569D01*
X199450000Y-78552560D01*
X195950000Y-78552560D01*
X195714683Y-78596838D01*
X195498559Y-78735910D01*
X195353569Y-78948110D01*
X195302560Y-79200000D01*
X195302560Y-80800000D01*
X195346838Y-81035317D01*
X195485910Y-81251441D01*
X195698110Y-81396431D01*
X195950000Y-81447440D01*
X196844327Y-81447440D01*
X196871190Y-81582484D01*
X196882367Y-81638675D01*
X197074210Y-81925790D01*
X198915001Y-83766580D01*
X198915001Y-84564389D01*
X198796681Y-84515258D01*
X198205911Y-84514743D01*
X197659914Y-84740344D01*
X197249651Y-85149892D01*
X196842283Y-84741812D01*
X196296681Y-84515258D01*
X195705911Y-84514743D01*
X195159914Y-84740344D01*
X194749651Y-85149892D01*
X194342283Y-84741812D01*
X193796681Y-84515258D01*
X193205911Y-84514743D01*
X192659914Y-84740344D01*
X192249651Y-85149892D01*
X191842283Y-84741812D01*
X191296681Y-84515258D01*
X190705911Y-84514743D01*
X190159914Y-84740344D01*
X189749651Y-85149892D01*
X189342283Y-84741812D01*
X188796681Y-84515258D01*
X188205911Y-84514743D01*
X187659914Y-84740344D01*
X187249651Y-85149892D01*
X186842283Y-84741812D01*
X186296681Y-84515258D01*
X185705911Y-84514743D01*
X185159914Y-84740344D01*
X184749651Y-85149892D01*
X184342283Y-84741812D01*
X183796681Y-84515258D01*
X183205911Y-84514743D01*
X182659914Y-84740344D01*
X182249651Y-85149892D01*
X181842283Y-84741812D01*
X181296681Y-84515258D01*
X180705911Y-84514743D01*
X180159914Y-84740344D01*
X179741812Y-85157717D01*
X179515258Y-85703319D01*
X179514743Y-86294089D01*
X179740344Y-86840086D01*
X180149892Y-87250349D01*
X179741812Y-87657717D01*
X179515258Y-88203319D01*
X179514743Y-88794089D01*
X179740344Y-89340086D01*
X180157717Y-89758188D01*
X180703319Y-89984742D01*
X181294089Y-89985257D01*
X181840086Y-89759656D01*
X182250349Y-89350108D01*
X182657717Y-89758188D01*
X183203319Y-89984742D01*
X183701370Y-89985176D01*
X183565162Y-90313201D01*
X183565117Y-90365010D01*
X183488243Y-90365010D01*
X183400165Y-90276778D01*
X183056637Y-90134132D01*
X182684671Y-90133808D01*
X182340895Y-90275853D01*
X182077646Y-90538643D01*
X181935000Y-90882171D01*
X181934676Y-91254137D01*
X182076721Y-91597913D01*
X182339511Y-91861162D01*
X182683039Y-92003808D01*
X183055005Y-92004132D01*
X183398781Y-91862087D01*
X183425905Y-91835010D01*
X185303407Y-91835010D01*
X177210000Y-99928416D01*
X177210000Y-80285750D01*
X189915000Y-80285750D01*
X189915000Y-80926310D01*
X190011673Y-81159699D01*
X190190302Y-81338327D01*
X190423691Y-81435000D01*
X192014250Y-81435000D01*
X192173000Y-81276250D01*
X192173000Y-80127000D01*
X192427000Y-80127000D01*
X192427000Y-81276250D01*
X192585750Y-81435000D01*
X194176309Y-81435000D01*
X194409698Y-81338327D01*
X194588327Y-81159699D01*
X194685000Y-80926310D01*
X194685000Y-80285750D01*
X194526250Y-80127000D01*
X192427000Y-80127000D01*
X192173000Y-80127000D01*
X190073750Y-80127000D01*
X189915000Y-80285750D01*
X177210000Y-80285750D01*
X177210000Y-79073690D01*
X189915000Y-79073690D01*
X189915000Y-79714250D01*
X190073750Y-79873000D01*
X192173000Y-79873000D01*
X192173000Y-78723750D01*
X192427000Y-78723750D01*
X192427000Y-79873000D01*
X194526250Y-79873000D01*
X194685000Y-79714250D01*
X194685000Y-79073690D01*
X194588327Y-78840301D01*
X194409698Y-78661673D01*
X194176309Y-78565000D01*
X192585750Y-78565000D01*
X192427000Y-78723750D01*
X192173000Y-78723750D01*
X192014250Y-78565000D01*
X190423691Y-78565000D01*
X190190302Y-78661673D01*
X190011673Y-78840301D01*
X189915000Y-79073690D01*
X177210000Y-79073690D01*
X177210000Y-78402725D01*
X177250212Y-78500046D01*
X177498646Y-78748914D01*
X177823406Y-78883766D01*
X178175051Y-78884073D01*
X178500046Y-78749788D01*
X178748914Y-78501354D01*
X178883766Y-78176594D01*
X178884073Y-77824949D01*
X178749788Y-77499954D01*
X178501354Y-77251086D01*
X178176594Y-77116234D01*
X177824949Y-77115927D01*
X177499954Y-77250212D01*
X177251086Y-77498646D01*
X177210000Y-77597592D01*
X177210000Y-76710000D01*
X202290000Y-76710000D01*
X202290000Y-77597275D01*
G36*
X195149892Y-87250349D02*
X194741812Y-87657717D01*
X194515258Y-88203319D01*
X194514743Y-88794089D01*
X194740344Y-89340086D01*
X195157717Y-89758188D01*
X195703319Y-89984742D01*
X195763626Y-89984795D01*
X194783408Y-90965012D01*
X191074434Y-90965012D01*
X192604355Y-89435092D01*
X192685167Y-89435162D01*
X193028943Y-89293117D01*
X193292192Y-89030327D01*
X193434838Y-88686799D01*
X193435162Y-88314833D01*
X193293117Y-87971057D01*
X193030327Y-87707808D01*
X192686799Y-87565162D01*
X192314833Y-87564838D01*
X191971057Y-87706883D01*
X191707808Y-87969673D01*
X191565162Y-88313201D01*
X191565090Y-88395463D01*
X190195554Y-89765000D01*
X186827153Y-89765000D01*
X186840086Y-89759656D01*
X187258188Y-89342283D01*
X187484742Y-88796681D01*
X187485257Y-88205911D01*
X187259656Y-87659914D01*
X186850108Y-87249651D01*
X187250349Y-86850108D01*
X187657717Y-87258188D01*
X188203319Y-87484742D01*
X188794089Y-87485257D01*
X189340086Y-87259656D01*
X189750349Y-86850108D01*
X190157717Y-87258188D01*
X190703319Y-87484742D01*
X191294089Y-87485257D01*
X191840086Y-87259656D01*
X192250349Y-86850108D01*
X192657717Y-87258188D01*
X193203319Y-87484742D01*
X193794089Y-87485257D01*
X194340086Y-87259656D01*
X194750349Y-86850108D01*
X195149892Y-87250349D01*
X195149892Y-87250349D01*
G37*
X195149892Y-87250349D02*
X194741812Y-87657717D01*
X194515258Y-88203319D01*
X194514743Y-88794089D01*
X194740344Y-89340086D01*
X195157717Y-89758188D01*
X195703319Y-89984742D01*
X195763626Y-89984795D01*
X194783408Y-90965012D01*
X191074434Y-90965012D01*
X192604355Y-89435092D01*
X192685167Y-89435162D01*
X193028943Y-89293117D01*
X193292192Y-89030327D01*
X193434838Y-88686799D01*
X193435162Y-88314833D01*
X193293117Y-87971057D01*
X193030327Y-87707808D01*
X192686799Y-87565162D01*
X192314833Y-87564838D01*
X191971057Y-87706883D01*
X191707808Y-87969673D01*
X191565162Y-88313201D01*
X191565090Y-88395463D01*
X190195554Y-89765000D01*
X186827153Y-89765000D01*
X186840086Y-89759656D01*
X187258188Y-89342283D01*
X187484742Y-88796681D01*
X187485257Y-88205911D01*
X187259656Y-87659914D01*
X186850108Y-87249651D01*
X187250349Y-86850108D01*
X187657717Y-87258188D01*
X188203319Y-87484742D01*
X188794089Y-87485257D01*
X189340086Y-87259656D01*
X189750349Y-86850108D01*
X190157717Y-87258188D01*
X190703319Y-87484742D01*
X191294089Y-87485257D01*
X191840086Y-87259656D01*
X192250349Y-86850108D01*
X192657717Y-87258188D01*
X193203319Y-87484742D01*
X193794089Y-87485257D01*
X194340086Y-87259656D01*
X194750349Y-86850108D01*
X195149892Y-87250349D01*
M02*
