G04 #@! TF.FileFunction,Legend,Bot*
%FSLAX46Y46*%
G04 Gerber Fmt 4.6, Leading zero omitted, Abs format (unit mm)*
G04 Created by KiCad (PCBNEW 4.0.6) date Wednesday, September 13, 2017 'PMt' 03:29:23 PM*
%MOMM*%
%LPD*%
G01*
G04 APERTURE LIST*
%ADD10C,0.100000*%
%ADD11C,0.120000*%
%ADD12C,0.150000*%
%ADD13C,0.152400*%
G04 APERTURE END LIST*
D10*
D11*
X198300000Y-82540000D02*
X198300000Y-81120000D01*
X191700000Y-83300000D02*
X191700000Y-81120000D01*
X191700000Y-76700000D02*
X191700000Y-78880000D01*
X198300000Y-77460000D02*
X198300000Y-78880000D01*
X191700000Y-83300000D02*
X197540000Y-83300000D01*
X197540000Y-83300000D02*
X198300000Y-82540000D01*
X198300000Y-77460000D02*
X197540000Y-76700000D01*
X197540000Y-76700000D02*
X191700000Y-76700000D01*
X187850000Y-95900000D02*
X187150000Y-95900000D01*
X187150000Y-97100000D02*
X187850000Y-97100000D01*
X188000000Y-93820000D02*
X187000000Y-93820000D01*
X187000000Y-95180000D02*
X188000000Y-95180000D01*
X190000000Y-117820000D02*
X189000000Y-117820000D01*
X189000000Y-119180000D02*
X190000000Y-119180000D01*
D12*
X194250000Y-98100000D02*
X193175000Y-98100000D01*
X193175000Y-98100000D02*
X193175000Y-97875000D01*
X193175000Y-97875000D02*
X186825000Y-97875000D01*
X186825000Y-97875000D02*
X186825000Y-98200000D01*
X193175000Y-108800000D02*
X193175000Y-109125000D01*
X193175000Y-109125000D02*
X186825000Y-109125000D01*
X186825000Y-109125000D02*
X186825000Y-108800000D01*
X190166666Y-77857143D02*
X190214285Y-77904762D01*
X190357142Y-77952381D01*
X190452380Y-77952381D01*
X190595238Y-77904762D01*
X190690476Y-77809524D01*
X190738095Y-77714286D01*
X190785714Y-77523810D01*
X190785714Y-77380952D01*
X190738095Y-77190476D01*
X190690476Y-77095238D01*
X190595238Y-77000000D01*
X190452380Y-76952381D01*
X190357142Y-76952381D01*
X190214285Y-77000000D01*
X190166666Y-77047619D01*
X189214285Y-77952381D02*
X189785714Y-77952381D01*
X189500000Y-77952381D02*
X189500000Y-76952381D01*
X189595238Y-77095238D01*
X189690476Y-77190476D01*
X189785714Y-77238095D01*
X199660952Y-82981429D02*
X198899047Y-82981429D01*
X199279999Y-83362381D02*
X199279999Y-82600476D01*
X190166666Y-96857143D02*
X190214285Y-96904762D01*
X190357142Y-96952381D01*
X190452380Y-96952381D01*
X190595238Y-96904762D01*
X190690476Y-96809524D01*
X190738095Y-96714286D01*
X190785714Y-96523810D01*
X190785714Y-96380952D01*
X190738095Y-96190476D01*
X190690476Y-96095238D01*
X190595238Y-96000000D01*
X190452380Y-95952381D01*
X190357142Y-95952381D01*
X190214285Y-96000000D01*
X190166666Y-96047619D01*
X189785714Y-96047619D02*
X189738095Y-96000000D01*
X189642857Y-95952381D01*
X189404761Y-95952381D01*
X189309523Y-96000000D01*
X189261904Y-96047619D01*
X189214285Y-96142857D01*
X189214285Y-96238095D01*
X189261904Y-96380952D01*
X189833333Y-96952381D01*
X189214285Y-96952381D01*
X190166666Y-94952381D02*
X190500000Y-94476190D01*
X190738095Y-94952381D02*
X190738095Y-93952381D01*
X190357142Y-93952381D01*
X190261904Y-94000000D01*
X190214285Y-94047619D01*
X190166666Y-94142857D01*
X190166666Y-94285714D01*
X190214285Y-94380952D01*
X190261904Y-94428571D01*
X190357142Y-94476190D01*
X190738095Y-94476190D01*
X189214285Y-94952381D02*
X189785714Y-94952381D01*
X189500000Y-94952381D02*
X189500000Y-93952381D01*
X189595238Y-94095238D01*
X189690476Y-94190476D01*
X189785714Y-94238095D01*
X192166666Y-118952381D02*
X192500000Y-118476190D01*
X192738095Y-118952381D02*
X192738095Y-117952381D01*
X192357142Y-117952381D01*
X192261904Y-118000000D01*
X192214285Y-118047619D01*
X192166666Y-118142857D01*
X192166666Y-118285714D01*
X192214285Y-118380952D01*
X192261904Y-118428571D01*
X192357142Y-118476190D01*
X192738095Y-118476190D01*
X191785714Y-118047619D02*
X191738095Y-118000000D01*
X191642857Y-117952381D01*
X191404761Y-117952381D01*
X191309523Y-118000000D01*
X191261904Y-118047619D01*
X191214285Y-118142857D01*
X191214285Y-118238095D01*
X191261904Y-118380952D01*
X191833333Y-118952381D01*
X191214285Y-118952381D01*
X196761905Y-102452381D02*
X196761905Y-103261905D01*
X196714286Y-103357143D01*
X196666667Y-103404762D01*
X196571429Y-103452381D01*
X196380952Y-103452381D01*
X196285714Y-103404762D01*
X196238095Y-103357143D01*
X196190476Y-103261905D01*
X196190476Y-102452381D01*
X195190476Y-103452381D02*
X195761905Y-103452381D01*
X195476191Y-103452381D02*
X195476191Y-102452381D01*
X195571429Y-102595238D01*
X195666667Y-102690476D01*
X195761905Y-102738095D01*
D13*
X179588572Y-79427429D02*
X179927238Y-79427429D01*
X179927238Y-79959619D02*
X179927238Y-78943619D01*
X179443429Y-78943619D01*
X179056381Y-79959619D02*
X179056381Y-78943619D01*
X178572571Y-79959619D02*
X178572571Y-78943619D01*
X178330666Y-78943619D01*
X178185524Y-78992000D01*
X178088762Y-79088762D01*
X178040381Y-79185524D01*
X177992000Y-79379048D01*
X177992000Y-79524190D01*
X178040381Y-79717714D01*
X178088762Y-79814476D01*
X178185524Y-79911238D01*
X178330666Y-79959619D01*
X178572571Y-79959619D01*
X177121143Y-79282286D02*
X177121143Y-79959619D01*
X177363047Y-78895238D02*
X177604952Y-79620952D01*
X176976000Y-79620952D01*
X201588572Y-79427429D02*
X201927238Y-79427429D01*
X201927238Y-79959619D02*
X201927238Y-78943619D01*
X201443429Y-78943619D01*
X201056381Y-79959619D02*
X201056381Y-78943619D01*
X200572571Y-79959619D02*
X200572571Y-78943619D01*
X200330666Y-78943619D01*
X200185524Y-78992000D01*
X200088762Y-79088762D01*
X200040381Y-79185524D01*
X199992000Y-79379048D01*
X199992000Y-79524190D01*
X200040381Y-79717714D01*
X200088762Y-79814476D01*
X200185524Y-79911238D01*
X200330666Y-79959619D01*
X200572571Y-79959619D01*
X199072762Y-78943619D02*
X199556571Y-78943619D01*
X199604952Y-79427429D01*
X199556571Y-79379048D01*
X199459809Y-79330667D01*
X199217905Y-79330667D01*
X199121143Y-79379048D01*
X199072762Y-79427429D01*
X199024381Y-79524190D01*
X199024381Y-79766095D01*
X199072762Y-79862857D01*
X199121143Y-79911238D01*
X199217905Y-79959619D01*
X199459809Y-79959619D01*
X199556571Y-79911238D01*
X199604952Y-79862857D01*
X177927429Y-120411428D02*
X177927429Y-120072762D01*
X178459619Y-120072762D02*
X177443619Y-120072762D01*
X177443619Y-120556571D01*
X178459619Y-120943619D02*
X177443619Y-120943619D01*
X178459619Y-121427429D02*
X177443619Y-121427429D01*
X177443619Y-121669334D01*
X177492000Y-121814476D01*
X177588762Y-121911238D01*
X177685524Y-121959619D01*
X177879048Y-122008000D01*
X178024190Y-122008000D01*
X178217714Y-121959619D01*
X178314476Y-121911238D01*
X178411238Y-121814476D01*
X178459619Y-121669334D01*
X178459619Y-121427429D01*
X177443619Y-122878857D02*
X177443619Y-122685334D01*
X177492000Y-122588572D01*
X177540381Y-122540191D01*
X177685524Y-122443429D01*
X177879048Y-122395048D01*
X178266095Y-122395048D01*
X178362857Y-122443429D01*
X178411238Y-122491810D01*
X178459619Y-122588572D01*
X178459619Y-122782095D01*
X178411238Y-122878857D01*
X178362857Y-122927238D01*
X178266095Y-122975619D01*
X178024190Y-122975619D01*
X177927429Y-122927238D01*
X177879048Y-122878857D01*
X177830667Y-122782095D01*
X177830667Y-122588572D01*
X177879048Y-122491810D01*
X177927429Y-122443429D01*
X178024190Y-122395048D01*
M02*
