G04 #@! TF.FileFunction,Paste,Bot*
%FSLAX46Y46*%
G04 Gerber Fmt 4.6, Leading zero omitted, Abs format (unit mm)*
G04 Created by KiCad (PCBNEW 4.0.6) date Wednesday, September 13, 2017 'PMt' 03:29:23 PM*
%MOMM*%
%LPD*%
G01*
G04 APERTURE LIST*
%ADD10C,0.100000*%
%ADD11R,3.500000X1.600000*%
%ADD12R,0.800000X0.750000*%
%ADD13R,0.500000X0.900000*%
%ADD14R,1.200000X0.400000*%
%ADD15R,4.110000X4.360000*%
%ADD16C,0.497840*%
G04 APERTURE END LIST*
D10*
D11*
X197700000Y-80000000D03*
X192300000Y-80000000D03*
D12*
X188250000Y-96500000D03*
X186750000Y-96500000D03*
D13*
X186750000Y-94500000D03*
X188250000Y-94500000D03*
X188750000Y-118500000D03*
X190250000Y-118500000D03*
D14*
X193650000Y-98625000D03*
X193650000Y-99275000D03*
X193650000Y-99925000D03*
X193650000Y-100575000D03*
X193650000Y-101225000D03*
X193650000Y-101875000D03*
X193650000Y-102525000D03*
X193650000Y-103175000D03*
X193650000Y-103825000D03*
X193650000Y-104475000D03*
X193650000Y-105125000D03*
X193650000Y-105775000D03*
X193650000Y-106425000D03*
X193650000Y-107075000D03*
X193650000Y-107725000D03*
X193650000Y-108375000D03*
X186350000Y-108375000D03*
X186350000Y-107725000D03*
X186350000Y-107075000D03*
X186350000Y-106425000D03*
X186350000Y-105775000D03*
X186350000Y-105125000D03*
X186350000Y-104475000D03*
X186350000Y-103825000D03*
X186350000Y-103175000D03*
X186350000Y-102525000D03*
X186350000Y-101875000D03*
X186350000Y-101225000D03*
X186350000Y-100575000D03*
X186350000Y-99925000D03*
X186350000Y-99275000D03*
X186350000Y-98625000D03*
D15*
X190000000Y-103500000D03*
D16*
X178000000Y-78000000D03*
X201500000Y-78000000D03*
X178000000Y-124000000D03*
M02*
