M48
;DRILL file {KiCad 4.0.6} date Wednesday, September 13, 2017 'PMt' 03:29:42 PM
;FORMAT={2:4/ absolute / inch / suppress leading zeros}
FMAT,2
INCH,TZ
T1C0.013
T2C0.016
T3C0.028
T4C0.039
%
G90
G05
M72
T1
X74035Y-38957
X74035Y-39469
X74035Y-39980
X74035Y-40492
X74035Y-41004
X74035Y-41516
X74035Y-42028
X74035Y-42539
X74547Y-38957
X74547Y-39469
X74547Y-39980
X74547Y-40492
X74547Y-41004
X74547Y-41516
X74547Y-42028
X74547Y-42539
X75059Y-38957
X75059Y-39469
X75059Y-39980
X75059Y-40492
X75059Y-41004
X75059Y-41516
X75059Y-42028
X75059Y-42539
X75571Y-38957
X75571Y-39469
X75571Y-39980
X75571Y-40492
X75571Y-41004
X75571Y-41516
X75571Y-42028
X75571Y-42539
T2
X70087Y-40205
X70472Y-39567
X70866Y-39764
X71102Y-40842
X71102Y-42023
X71260Y-41624
X71378Y-42175
X71614Y-40600
X71850Y-38386
X71850Y-43701
X71996Y-35854
X72087Y-40157
X72244Y-41929
X72244Y-42717
X72443Y-39830
X72612Y-41152
X72638Y-35630
X72835Y-40856
X73031Y-37008
X73031Y-37992
X74047Y-35866
X74213Y-44291
X74409Y-34843
X75197Y-43898
X75394Y-37992
X75394Y-48819
X75787Y-34843
X75787Y-37598
X76181Y-37008
X76378Y-46654
X76695Y-45806
X76929Y-42717
X77165Y-40945
X77165Y-42392
X77165Y-45079
X77362Y-37008
X77362Y-39833
X77520Y-42152
X77559Y-44291
X77756Y-41929
X77756Y-43898
X77756Y-41142
X77913Y-40354
X77913Y-41632
X77913Y-44685
X78110Y-39567
X78150Y-37992
X78307Y-39235
X78346Y-46260
X78543Y-37598
X78543Y-38780
X78543Y-45866
X78780Y-40157
X78780Y-41385
X78798Y-45681
X78937Y-40551
T3
X71260Y-33858
X71260Y-34843
X71260Y-44685
X71260Y-45669
X72244Y-33858
X72244Y-34843
X72244Y-44685
X72244Y-45669
X73228Y-33858
X73228Y-34843
X73228Y-45669
X74213Y-33858
X74213Y-45669
X75197Y-33858
X75197Y-45669
X76181Y-33858
X76181Y-44685
X76181Y-45669
X77165Y-33858
X77165Y-34843
X78150Y-33858
X78150Y-34843
T4
X71346Y-47835
X72346Y-47835
X73346Y-47835
X74346Y-47835
X75346Y-47835
X76346Y-47835
X77346Y-47835
X78346Y-47835
T0
M30
