G04 #@! TF.FileFunction,Copper,L1,Top,Signal*
%FSLAX46Y46*%
G04 Gerber Fmt 4.6, Leading zero omitted, Abs format (unit mm)*
G04 Created by KiCad (PCBNEW 4.0.6) date Wednesday, September 13, 2017 'PMt' 03:29:23 PM*
%MOMM*%
%LPD*%
G01*
G04 APERTURE LIST*
%ADD10C,0.100000*%
%ADD11R,1.700000X1.700000*%
%ADD12C,1.700000*%
%ADD13R,1.600000X1.000000*%
%ADD14O,1.700000X1.700000*%
%ADD15C,0.497840*%
%ADD16R,5.200000X11.000000*%
%ADD17C,1.330000*%
%ADD18C,0.600000*%
%ADD19C,0.500000*%
%ADD20C,0.350000*%
%ADD21C,0.200000*%
%ADD22C,0.254000*%
G04 APERTURE END LIST*
D10*
D11*
X181000000Y-116000000D03*
D12*
X183500000Y-116000000D03*
X186000000Y-116000000D03*
X188500000Y-116000000D03*
X191000000Y-116000000D03*
X193500000Y-116000000D03*
X181000000Y-113500000D03*
X183500000Y-113500000D03*
X193500000Y-113500000D03*
X181000000Y-88500000D03*
X183500000Y-88500000D03*
X186000000Y-88500000D03*
X196000000Y-88500000D03*
X198500000Y-88500000D03*
X181000000Y-86000000D03*
X183500000Y-86000000D03*
X186000000Y-86000000D03*
X188500000Y-86000000D03*
X191000000Y-86000000D03*
X193500000Y-86000000D03*
X196000000Y-86000000D03*
X198500000Y-86000000D03*
D13*
X192500000Y-80600000D03*
X192500000Y-77400000D03*
X187500000Y-80600000D03*
X187500000Y-77400000D03*
D11*
X199000000Y-121500000D03*
D14*
X196460000Y-121500000D03*
X193920000Y-121500000D03*
X191380000Y-121500000D03*
X188840000Y-121500000D03*
X186300000Y-121500000D03*
X183760000Y-121500000D03*
X181220000Y-121500000D03*
D15*
X178000000Y-78000000D03*
X201500000Y-78000000D03*
X178000000Y-124000000D03*
D16*
X190000000Y-103500000D03*
D17*
X191950000Y-98950000D03*
X191950000Y-100250000D03*
X191950000Y-101550000D03*
X191950000Y-102850000D03*
X191950000Y-104150000D03*
X191950000Y-105450000D03*
X191950000Y-106750000D03*
X191950000Y-108050000D03*
X190650000Y-98950000D03*
X190650000Y-100250000D03*
X190650000Y-101550000D03*
X190650000Y-102850000D03*
X190650000Y-104150000D03*
X190650000Y-105450000D03*
X190650000Y-106750000D03*
X190650000Y-108050000D03*
X189350000Y-98950000D03*
X189350000Y-100250000D03*
X189350000Y-101550000D03*
X189350000Y-102850000D03*
X189350000Y-104150000D03*
X189350000Y-105450000D03*
X189350000Y-106750000D03*
X189350000Y-108050000D03*
X188050000Y-98950000D03*
X188050000Y-100250000D03*
X188050000Y-101550000D03*
X188050000Y-102850000D03*
X188050000Y-104150000D03*
X188050000Y-105450000D03*
X188050000Y-106750000D03*
X188050000Y-108050000D03*
D18*
X189000000Y-88500000D03*
X194000000Y-118500000D03*
X182500000Y-111000000D03*
X182500000Y-97500000D03*
X185500000Y-94000000D03*
X185500000Y-96500000D03*
X180600010Y-106738040D03*
X194804713Y-116346743D03*
X195399990Y-108500000D03*
X196000000Y-107675010D03*
X196000000Y-114500000D03*
X196899990Y-107065694D03*
X188500000Y-112500000D03*
X197000000Y-112500000D03*
X197499979Y-106500000D03*
X197499979Y-111500000D03*
X191000000Y-111500000D03*
X200148057Y-116030916D03*
X200100010Y-105117683D03*
X181300207Y-107124990D03*
X183500000Y-108500000D03*
X197899990Y-113500000D03*
X197899990Y-105746232D03*
X181000000Y-105725010D03*
X183500000Y-106500000D03*
X185000000Y-103775010D03*
X196000000Y-104000000D03*
X180600010Y-103738040D03*
X181899990Y-103125010D03*
X184434306Y-104524990D03*
X197899990Y-102500000D03*
X191500000Y-96500000D03*
X198500000Y-96500000D03*
X200100010Y-102000000D03*
X192500000Y-95500000D03*
X199500000Y-95500000D03*
X196500000Y-101175010D03*
X193500000Y-94000000D03*
X196500000Y-94000000D03*
X197500000Y-104500000D03*
X200500000Y-103000000D03*
X184005783Y-101169227D03*
X192500000Y-88500000D03*
X184500000Y-90500000D03*
X183100010Y-102000000D03*
X188079911Y-91100010D03*
X182869838Y-91068970D03*
X178021755Y-102120260D03*
X180000000Y-101000000D03*
X198399990Y-100500000D03*
X198899990Y-99657055D03*
X199000000Y-117500000D03*
X191500000Y-124000000D03*
X179000000Y-100500000D03*
X199500000Y-116500000D03*
X199500000Y-98500000D03*
D19*
X186675998Y-78400000D02*
X191200000Y-78400000D01*
X181220000Y-121500000D02*
X179945998Y-121500000D01*
X177199999Y-104052020D02*
X178771757Y-102480262D01*
X178771757Y-102480262D02*
X178771757Y-101381759D01*
X178249999Y-100860001D02*
X178249999Y-86825999D01*
X179945998Y-121500000D02*
X177199999Y-118754001D01*
X191200000Y-78400000D02*
X192200000Y-77400000D01*
X178771757Y-101381759D02*
X178249999Y-100860001D01*
X177199999Y-118754001D02*
X177199999Y-104052020D01*
X192200000Y-77400000D02*
X192500000Y-77400000D01*
X178249999Y-86825999D02*
X186675998Y-78400000D01*
D20*
X189350000Y-98950000D02*
X189350000Y-88850000D01*
X189350000Y-88850000D02*
X189000000Y-88500000D01*
X186300000Y-121500000D02*
X187225001Y-120574999D01*
X187225001Y-120574999D02*
X187225001Y-108874999D01*
X187225001Y-108874999D02*
X187385001Y-108714999D01*
X187385001Y-108714999D02*
X188050000Y-108050000D01*
D21*
X186300000Y-121500000D02*
X189300000Y-118500000D01*
X189300000Y-118500000D02*
X194000000Y-118500000D01*
X182500000Y-97500000D02*
X182500000Y-111000000D01*
X185500000Y-96500000D02*
X185500000Y-94000000D01*
X181899998Y-110711998D02*
X182099989Y-110512007D01*
X181000000Y-116000000D02*
X182050000Y-116000000D01*
X182150001Y-111538005D02*
X181899998Y-111288002D01*
X182150001Y-115899999D02*
X182150001Y-111538005D01*
X182050000Y-116000000D02*
X182150001Y-115899999D01*
X182099989Y-107036770D02*
X181501260Y-106438041D01*
X181899998Y-111288002D02*
X181899998Y-110711998D01*
X181501260Y-106438041D02*
X180900009Y-106438041D01*
X180900009Y-106438041D02*
X180600010Y-106738040D01*
X182099989Y-110512007D02*
X182099989Y-107036770D01*
X195399990Y-115751466D02*
X195104712Y-116046744D01*
X195399990Y-108500000D02*
X195399990Y-115751466D01*
X195104712Y-116046744D02*
X194804713Y-116346743D01*
X196000000Y-114500000D02*
X196000000Y-107675010D01*
X196700001Y-107265683D02*
X196899990Y-107065694D01*
X197000000Y-112500000D02*
X196700001Y-112200001D01*
X196700001Y-112200001D02*
X196700001Y-107265683D01*
X188500000Y-112500000D02*
X188500000Y-116000000D01*
X197500000Y-106924285D02*
X197500000Y-111075715D01*
X197499979Y-106924264D02*
X197500000Y-106924285D01*
X197500000Y-111075715D02*
X197499979Y-111075736D01*
X197499979Y-106500000D02*
X197499979Y-106924264D01*
X197499979Y-111075736D02*
X197499979Y-111500000D01*
X191000000Y-111500000D02*
X191000000Y-116000000D01*
X200100010Y-115982869D02*
X200148057Y-116030916D01*
X200100010Y-105117683D02*
X200100010Y-115982869D01*
X181000000Y-107425197D02*
X181000208Y-107424989D01*
X181000208Y-107424989D02*
X181300207Y-107124990D01*
X181000000Y-113500000D02*
X181000000Y-107425197D01*
X183500000Y-108500000D02*
X183500000Y-113500000D01*
X198099989Y-112875737D02*
X197899990Y-113075736D01*
X197899990Y-105746232D02*
X198099989Y-105946231D01*
X197899990Y-113075736D02*
X197899990Y-113500000D01*
X198099989Y-105946231D02*
X198099989Y-112875737D01*
X181299988Y-105000758D02*
X181000000Y-105300746D01*
X181000000Y-89702081D02*
X181299988Y-90002069D01*
X181000000Y-88500000D02*
X181000000Y-89702081D01*
X181299988Y-90002069D02*
X181299988Y-105000758D01*
X181000000Y-105300746D02*
X181000000Y-105725010D01*
X183500000Y-106075736D02*
X183700011Y-105875725D01*
X183700011Y-105875725D02*
X183700011Y-101711999D01*
X183500000Y-89702081D02*
X183500000Y-88500000D01*
X183399999Y-101411987D02*
X183399999Y-98053703D01*
X183399999Y-98053703D02*
X183500012Y-97953690D01*
X183500000Y-106500000D02*
X183500000Y-106075736D01*
X183500012Y-89702093D02*
X183500000Y-89702081D01*
X183700011Y-101711999D02*
X183399999Y-101411987D01*
X183500012Y-97953690D02*
X183500012Y-89702093D01*
X185299999Y-103475011D02*
X185000000Y-103775010D01*
X186100001Y-102675009D02*
X185299999Y-103475011D01*
X186000000Y-89702081D02*
X186100001Y-89802082D01*
X186000000Y-88500000D02*
X186000000Y-89702081D01*
X186100001Y-89802082D02*
X186100001Y-102675009D01*
X195700001Y-88799999D02*
X196000000Y-88500000D01*
X195700001Y-103700001D02*
X195700001Y-88799999D01*
X196000000Y-104000000D02*
X195700001Y-103700001D01*
X179849999Y-87150001D02*
X179849999Y-99961997D01*
X181000000Y-86000000D02*
X179849999Y-87150001D01*
X179849999Y-99961997D02*
X180600010Y-100712008D01*
X180600010Y-103313776D02*
X180600010Y-103738040D01*
X180600010Y-100712008D02*
X180600010Y-103313776D01*
X182349999Y-90700807D02*
X181899990Y-91150816D01*
X181899990Y-91150816D02*
X181899990Y-102700746D01*
X183500000Y-86000000D02*
X182349999Y-87150001D01*
X181899990Y-102700746D02*
X181899990Y-103125010D01*
X182349999Y-87150001D02*
X182349999Y-90700807D01*
X185100002Y-93511994D02*
X184899999Y-93711997D01*
X184899999Y-93711997D02*
X184899999Y-102711999D01*
X185100002Y-90211998D02*
X185100002Y-93511994D01*
X184134307Y-104224991D02*
X184434306Y-104524990D01*
X184788002Y-89899998D02*
X185100002Y-90211998D01*
X184788002Y-87211998D02*
X184788002Y-89899998D01*
X184134307Y-103477691D02*
X184134307Y-104224991D01*
X184899999Y-102711999D02*
X184134307Y-103477691D01*
X186000000Y-86000000D02*
X184788002Y-87211998D01*
X189349999Y-86849999D02*
X188500000Y-86000000D01*
X190899999Y-88399999D02*
X189349999Y-86849999D01*
X190899999Y-95899999D02*
X190899999Y-88399999D01*
X191500000Y-96500000D02*
X190899999Y-95899999D01*
X197899990Y-102075736D02*
X197899990Y-102500000D01*
X197799989Y-101975735D02*
X197899990Y-102075736D01*
X197799989Y-97200011D02*
X197799989Y-101975735D01*
X198500000Y-96500000D02*
X197799989Y-97200011D01*
X191849999Y-86849999D02*
X191000000Y-86000000D01*
X191849999Y-94849999D02*
X191849999Y-86849999D01*
X192500000Y-95500000D02*
X191849999Y-94849999D01*
X200100010Y-96100010D02*
X200100010Y-101575736D01*
X200100010Y-101575736D02*
X200100010Y-102000000D01*
X199500000Y-95500000D02*
X200100010Y-96100010D01*
X193500000Y-94000000D02*
X193500000Y-93575736D01*
X193500000Y-93575736D02*
X193500000Y-86000000D01*
X196500000Y-94000000D02*
X196500000Y-101175010D01*
X197500000Y-104500000D02*
X197200001Y-104200001D01*
X197200001Y-104200001D02*
X197200001Y-87200001D01*
X197200001Y-87200001D02*
X196849999Y-86849999D01*
X196849999Y-86849999D02*
X196000000Y-86000000D01*
X200500000Y-103000000D02*
X200799999Y-102700001D01*
X200799999Y-102700001D02*
X200799999Y-88299999D01*
X200799999Y-88299999D02*
X199349999Y-86849999D01*
X199349999Y-86849999D02*
X198500000Y-86000000D01*
X184500000Y-90500000D02*
X184005783Y-90994217D01*
X184005783Y-100744963D02*
X184005783Y-101169227D01*
X184005783Y-90994217D02*
X184005783Y-100744963D01*
X192500000Y-88500000D02*
X192500000Y-88075736D01*
X192500000Y-88075736D02*
X192349999Y-87925735D01*
X192349999Y-87925735D02*
X192349999Y-81450001D01*
X192349999Y-81450001D02*
X192500000Y-81300000D01*
X192500000Y-81300000D02*
X192500000Y-80600000D01*
X183100001Y-91723397D02*
X183100001Y-97788001D01*
X183100001Y-97788001D02*
X182900011Y-97987991D01*
X182869838Y-91068970D02*
X182869838Y-91493234D01*
X182900011Y-101800001D02*
X183100010Y-102000000D01*
X182869838Y-91493234D02*
X183100001Y-91723397D01*
X182900011Y-97987991D02*
X182900011Y-101800001D01*
X187500000Y-81300000D02*
X187200001Y-81599999D01*
X187779912Y-90800011D02*
X188079911Y-91100010D01*
X187200001Y-81599999D02*
X187200001Y-90220100D01*
X187200001Y-90220100D02*
X187779912Y-90800011D01*
X187500000Y-80600000D02*
X187500000Y-81300000D01*
X177721756Y-101820261D02*
X178021755Y-102120260D01*
X177573458Y-101671963D02*
X177721756Y-101820261D01*
X186500000Y-77400000D02*
X177573458Y-86326542D01*
X177573458Y-86326542D02*
X177573458Y-101671963D01*
X187500000Y-77400000D02*
X186500000Y-77400000D01*
X198899999Y-122650001D02*
X199000000Y-122550000D01*
X180000000Y-102595552D02*
X179700002Y-102895550D01*
X199000000Y-122550000D02*
X199000000Y-121500000D01*
X185747999Y-122650001D02*
X198899999Y-122650001D01*
X182849999Y-120349999D02*
X184312001Y-120349999D01*
X184910001Y-121812003D02*
X185747999Y-122650001D01*
X184312001Y-120349999D02*
X184910001Y-120947999D01*
X179700002Y-102895550D02*
X179700002Y-117200002D01*
X179700002Y-117200002D02*
X182849999Y-120349999D01*
X184910001Y-120947999D02*
X184910001Y-121812003D01*
X180000000Y-101000000D02*
X180000000Y-102595552D01*
X198599989Y-101124263D02*
X198399990Y-100924264D01*
X198599989Y-114512007D02*
X198599989Y-101124263D01*
X196460000Y-116651996D02*
X198599989Y-114512007D01*
X198399990Y-100924264D02*
X198399990Y-100500000D01*
X196460000Y-121500000D02*
X196460000Y-116651996D01*
X199000000Y-100181329D02*
X198899990Y-100081319D01*
X199000000Y-117500000D02*
X198700001Y-117200001D01*
X198700001Y-116411995D02*
X199000000Y-116111996D01*
X199000000Y-116111996D02*
X199000000Y-100181329D01*
X198899990Y-100081319D02*
X198899990Y-99657055D01*
X198700001Y-117200001D02*
X198700001Y-116411995D01*
X182609999Y-120947999D02*
X182609999Y-122052001D01*
X179299991Y-117637991D02*
X182609999Y-120947999D01*
X179299991Y-102729861D02*
X179299991Y-117637991D01*
X184557998Y-124000000D02*
X191075736Y-124000000D01*
X179321768Y-100821768D02*
X179321768Y-102708084D01*
X182609999Y-122052001D02*
X184557998Y-124000000D01*
X191075736Y-124000000D02*
X191500000Y-124000000D01*
X179321768Y-102708084D02*
X179299991Y-102729861D01*
X179000000Y-100500000D02*
X179321768Y-100821768D01*
X199500000Y-98500000D02*
X199500000Y-116500000D01*
D22*
G36*
X195725000Y-116651996D02*
X195725000Y-120210341D01*
X195409946Y-120420853D01*
X195190000Y-120750026D01*
X194970054Y-120420853D01*
X194488285Y-120098946D01*
X193920000Y-119985907D01*
X193351715Y-120098946D01*
X192869946Y-120420853D01*
X192650000Y-120750026D01*
X192430054Y-120420853D01*
X191948285Y-120098946D01*
X191380000Y-119985907D01*
X190811715Y-120098946D01*
X190329946Y-120420853D01*
X190110000Y-120750026D01*
X189890054Y-120420853D01*
X189408285Y-120098946D01*
X188840000Y-119985907D01*
X188271715Y-120098946D01*
X187789946Y-120420853D01*
X187562298Y-120761553D01*
X187495183Y-120618642D01*
X187066924Y-120228355D01*
X186656890Y-120058524D01*
X186427000Y-120179845D01*
X186427000Y-121373000D01*
X186447000Y-121373000D01*
X186447000Y-121627000D01*
X186427000Y-121627000D01*
X186427000Y-121647000D01*
X186173000Y-121647000D01*
X186173000Y-121627000D01*
X186153000Y-121627000D01*
X186153000Y-121373000D01*
X186173000Y-121373000D01*
X186173000Y-120179845D01*
X185943110Y-120058524D01*
X185533076Y-120228355D01*
X185374406Y-120372957D01*
X184831724Y-119830276D01*
X184593273Y-119670948D01*
X184312001Y-119614999D01*
X183154446Y-119614999D01*
X181036886Y-117497440D01*
X181850000Y-117497440D01*
X182085317Y-117453162D01*
X182301441Y-117314090D01*
X182446431Y-117101890D01*
X182455751Y-117055869D01*
X182657717Y-117258188D01*
X183203319Y-117484742D01*
X183794089Y-117485257D01*
X184340086Y-117259656D01*
X184750349Y-116850108D01*
X185157717Y-117258188D01*
X185703319Y-117484742D01*
X186294089Y-117485257D01*
X186840086Y-117259656D01*
X187250349Y-116850108D01*
X187657717Y-117258188D01*
X188203319Y-117484742D01*
X188794089Y-117485257D01*
X189340086Y-117259656D01*
X189750349Y-116850108D01*
X190157717Y-117258188D01*
X190703319Y-117484742D01*
X191294089Y-117485257D01*
X191840086Y-117259656D01*
X192250349Y-116850108D01*
X192657717Y-117258188D01*
X193203319Y-117484742D01*
X193794089Y-117485257D01*
X194340086Y-117259656D01*
X194406192Y-117193666D01*
X194617914Y-117281581D01*
X194989880Y-117281905D01*
X195333656Y-117139860D01*
X195596905Y-116877070D01*
X195739551Y-116533542D01*
X195739623Y-116451280D01*
X195771208Y-116419694D01*
X195725000Y-116651996D01*
X195725000Y-116651996D01*
G37*
X195725000Y-116651996D02*
X195725000Y-120210341D01*
X195409946Y-120420853D01*
X195190000Y-120750026D01*
X194970054Y-120420853D01*
X194488285Y-120098946D01*
X193920000Y-119985907D01*
X193351715Y-120098946D01*
X192869946Y-120420853D01*
X192650000Y-120750026D01*
X192430054Y-120420853D01*
X191948285Y-120098946D01*
X191380000Y-119985907D01*
X190811715Y-120098946D01*
X190329946Y-120420853D01*
X190110000Y-120750026D01*
X189890054Y-120420853D01*
X189408285Y-120098946D01*
X188840000Y-119985907D01*
X188271715Y-120098946D01*
X187789946Y-120420853D01*
X187562298Y-120761553D01*
X187495183Y-120618642D01*
X187066924Y-120228355D01*
X186656890Y-120058524D01*
X186427000Y-120179845D01*
X186427000Y-121373000D01*
X186447000Y-121373000D01*
X186447000Y-121627000D01*
X186427000Y-121627000D01*
X186427000Y-121647000D01*
X186173000Y-121647000D01*
X186173000Y-121627000D01*
X186153000Y-121627000D01*
X186153000Y-121373000D01*
X186173000Y-121373000D01*
X186173000Y-120179845D01*
X185943110Y-120058524D01*
X185533076Y-120228355D01*
X185374406Y-120372957D01*
X184831724Y-119830276D01*
X184593273Y-119670948D01*
X184312001Y-119614999D01*
X183154446Y-119614999D01*
X181036886Y-117497440D01*
X181850000Y-117497440D01*
X182085317Y-117453162D01*
X182301441Y-117314090D01*
X182446431Y-117101890D01*
X182455751Y-117055869D01*
X182657717Y-117258188D01*
X183203319Y-117484742D01*
X183794089Y-117485257D01*
X184340086Y-117259656D01*
X184750349Y-116850108D01*
X185157717Y-117258188D01*
X185703319Y-117484742D01*
X186294089Y-117485257D01*
X186840086Y-117259656D01*
X187250349Y-116850108D01*
X187657717Y-117258188D01*
X188203319Y-117484742D01*
X188794089Y-117485257D01*
X189340086Y-117259656D01*
X189750349Y-116850108D01*
X190157717Y-117258188D01*
X190703319Y-117484742D01*
X191294089Y-117485257D01*
X191840086Y-117259656D01*
X192250349Y-116850108D01*
X192657717Y-117258188D01*
X193203319Y-117484742D01*
X193794089Y-117485257D01*
X194340086Y-117259656D01*
X194406192Y-117193666D01*
X194617914Y-117281581D01*
X194989880Y-117281905D01*
X195333656Y-117139860D01*
X195596905Y-116877070D01*
X195739551Y-116533542D01*
X195739623Y-116451280D01*
X195771208Y-116419694D01*
X195725000Y-116651996D01*
G36*
X188203319Y-87484742D02*
X188794089Y-87485257D01*
X188901450Y-87440896D01*
X190164999Y-88704445D01*
X190164999Y-95899999D01*
X190204784Y-96100010D01*
X190220948Y-96181271D01*
X190380276Y-96419722D01*
X190564908Y-96604355D01*
X190564838Y-96685167D01*
X190706883Y-97028943D01*
X190969673Y-97292192D01*
X191145013Y-97365000D01*
X190285750Y-97365000D01*
X190127000Y-97523750D01*
X190127000Y-97745924D01*
X189998063Y-97799331D01*
X189873000Y-97755653D01*
X189873000Y-97523750D01*
X189714250Y-97365000D01*
X187273691Y-97365000D01*
X187040302Y-97461673D01*
X186861673Y-97640301D01*
X186835001Y-97704693D01*
X186835001Y-90894546D01*
X187144819Y-91204364D01*
X187144749Y-91285177D01*
X187286794Y-91628953D01*
X187549584Y-91892202D01*
X187893112Y-92034848D01*
X188265078Y-92035172D01*
X188608854Y-91893127D01*
X188872103Y-91630337D01*
X189014749Y-91286809D01*
X189015073Y-90914843D01*
X188873028Y-90571067D01*
X188610238Y-90307818D01*
X188266710Y-90165172D01*
X188184447Y-90165100D01*
X187935001Y-89915654D01*
X187935001Y-87373327D01*
X188203319Y-87484742D01*
X188203319Y-87484742D01*
G37*
X188203319Y-87484742D02*
X188794089Y-87485257D01*
X188901450Y-87440896D01*
X190164999Y-88704445D01*
X190164999Y-95899999D01*
X190204784Y-96100010D01*
X190220948Y-96181271D01*
X190380276Y-96419722D01*
X190564908Y-96604355D01*
X190564838Y-96685167D01*
X190706883Y-97028943D01*
X190969673Y-97292192D01*
X191145013Y-97365000D01*
X190285750Y-97365000D01*
X190127000Y-97523750D01*
X190127000Y-97745924D01*
X189998063Y-97799331D01*
X189873000Y-97755653D01*
X189873000Y-97523750D01*
X189714250Y-97365000D01*
X187273691Y-97365000D01*
X187040302Y-97461673D01*
X186861673Y-97640301D01*
X186835001Y-97704693D01*
X186835001Y-90894546D01*
X187144819Y-91204364D01*
X187144749Y-91285177D01*
X187286794Y-91628953D01*
X187549584Y-91892202D01*
X187893112Y-92034848D01*
X188265078Y-92035172D01*
X188608854Y-91893127D01*
X188872103Y-91630337D01*
X189014749Y-91286809D01*
X189015073Y-90914843D01*
X188873028Y-90571067D01*
X188610238Y-90307818D01*
X188266710Y-90165172D01*
X188184447Y-90165100D01*
X187935001Y-89915654D01*
X187935001Y-87373327D01*
X188203319Y-87484742D01*
M02*
